<svg width="200" height="200" viewBox="0 0 200 200" fill="none" xmlns="http://www.w3.org/2000/svg">
<path d="M100 192.06C155.228 192.06 200 166.212 200 134.327C200 102.442 155.228 76.5947 100 76.5947C44.7715 76.5947 0 102.442 0 134.327C0 166.212 44.7715 192.06 100 192.06Z" fill="#F0F0F0"/>
<path d="M39.5966 146.126C56.9107 146.126 70.9466 138.354 70.9466 128.767C70.9466 119.18 56.9107 111.409 39.5966 111.409C22.2825 111.409 8.24658 119.18 8.24658 128.767C8.24658 138.354 22.2825 146.126 39.5966 146.126Z" fill="#E0E0E0"/>
<path d="M20.4285 157.41L69.5572 185.766C69.8087 185.892 70.0862 185.958 70.3676 185.958C70.649 185.958 70.9266 185.892 71.1781 185.766L158.056 135.604C158.153 135.57 158.238 135.507 158.298 135.423C158.357 135.339 158.389 135.239 158.389 135.136C158.389 135.033 158.357 134.932 158.298 134.849C158.238 134.765 158.153 134.701 158.056 134.668L108.927 106.312C108.677 106.185 108.4 106.12 108.119 106.12C107.838 106.12 107.561 106.185 107.311 106.312L20.4285 156.473C20.3312 156.507 20.2468 156.57 20.1871 156.654C20.1273 156.738 20.0952 156.839 20.0952 156.942C20.0952 157.045 20.1273 157.145 20.1871 157.229C20.2468 157.313 20.3312 157.376 20.4285 157.41V157.41Z" fill="#E0E0E0"/>
<path d="M156.574 171.581C171.377 171.581 183.376 164.653 183.376 156.108C183.376 147.562 171.377 140.634 156.574 140.634C141.771 140.634 129.771 147.562 129.771 156.108C129.771 164.653 141.771 171.581 156.574 171.581Z" fill="#E0E0E0"/>
<path d="M42.595 142.981C42.5031 142.981 42.4121 142.963 42.3273 142.927C42.2424 142.892 42.1654 142.84 42.1006 142.775C42.0359 142.71 41.9846 142.633 41.9498 142.548C41.915 142.463 41.8974 142.372 41.898 142.28V97.4466C41.898 97.2617 41.9714 97.0844 42.1021 96.9537C42.2328 96.823 42.4101 96.7495 42.595 96.7495C42.7799 96.7495 42.9572 96.823 43.0879 96.9537C43.2186 97.0844 43.292 97.2617 43.292 97.4466V142.28C43.292 142.465 43.2187 142.643 43.0881 142.774C42.9575 142.905 42.7803 142.98 42.595 142.981Z" fill="#455A64"/>
<path d="M70.3339 126.66C70.1963 126.661 70.0614 126.622 69.9457 126.547C69.8301 126.472 69.7388 126.366 69.6831 126.24L55.9355 91.4424C55.8675 91.2703 55.8707 91.0783 55.9444 90.9086C56.018 90.7389 56.156 90.6054 56.3281 90.5375C56.5001 90.4696 56.6921 90.4728 56.8618 90.5464C57.0315 90.62 57.165 90.7581 57.233 90.9301L70.9806 125.707C71.0223 125.812 71.0376 125.926 71.0252 126.039C71.0127 126.152 70.9729 126.26 70.9091 126.354C70.8454 126.448 70.7597 126.525 70.6595 126.578C70.5592 126.631 70.4475 126.659 70.3339 126.66V126.66Z" fill="#455A64"/>
<path d="M68.6796 122.482C68.5852 122.482 68.4917 122.462 68.4051 122.425C68.3184 122.387 68.2404 122.332 68.1757 122.263L42.591 95.1922L17.0567 122.146C16.9949 122.216 16.9195 122.274 16.835 122.314C16.7505 122.355 16.6587 122.378 16.565 122.383C16.4714 122.387 16.3778 122.372 16.2899 122.34C16.202 122.307 16.1216 122.257 16.0535 122.193C15.9853 122.128 15.9309 122.051 15.8935 121.965C15.856 121.879 15.8363 121.786 15.8355 121.692C15.8347 121.599 15.8528 121.506 15.8887 121.419C15.9247 121.332 15.9777 121.254 16.0447 121.188L42.0787 93.6974C42.144 93.6282 42.2228 93.5732 42.3102 93.5356C42.3975 93.4981 42.4917 93.4788 42.5868 93.479C42.6812 93.4794 42.7745 93.4989 42.8611 93.5365C42.9478 93.574 43.0259 93.6287 43.0907 93.6974L69.1793 121.306C69.2421 121.372 69.2913 121.45 69.3238 121.536C69.3564 121.621 69.3717 121.712 69.369 121.803C69.3663 121.895 69.3455 121.985 69.3079 122.068C69.2703 122.151 69.2166 122.226 69.1499 122.289C69.0237 122.411 68.8553 122.48 68.6796 122.482V122.482Z" fill="#455A64"/>
<path d="M14.8557 126.66C14.7679 126.66 14.6809 126.642 14.5996 126.609C14.5141 126.576 14.4359 126.527 14.3697 126.463C14.3035 126.4 14.2505 126.324 14.2138 126.24C14.1771 126.156 14.1574 126.066 14.1559 125.974C14.1543 125.883 14.171 125.792 14.2049 125.707L27.9525 90.9091C28.0205 90.7371 28.154 90.599 28.3237 90.5254C28.4934 90.4518 28.6854 90.4486 28.8574 90.5165C29.0295 90.5844 29.1675 90.7179 29.2411 90.8876C29.3148 91.0573 29.318 91.2493 29.25 91.4214L15.5024 126.219C15.4511 126.349 15.3621 126.46 15.2468 126.539C15.1315 126.617 14.9953 126.659 14.8557 126.66V126.66Z" fill="#455A64"/>
<path d="M69.3848 121.407L71.203 126.202C71.2068 126.243 71.2068 126.283 71.203 126.324V126.412C71.1506 126.542 71.0539 126.649 70.93 126.714C70.7583 126.801 70.5684 126.847 70.3758 126.847C70.1832 126.847 69.9933 126.801 69.8215 126.714C69.7258 126.666 69.65 126.586 69.6073 126.488V126.488V126.425L67.9277 121.927L69.3848 121.407Z" fill="#7E57C2"/>
<path d="M15.8013 121.407L13.9831 126.202C13.9792 126.243 13.9792 126.283 13.9831 126.324C13.9789 126.353 13.9789 126.383 13.9831 126.412C14.0324 126.544 14.13 126.652 14.2561 126.714C14.4271 126.801 14.6163 126.847 14.8082 126.847C15.0002 126.847 15.1894 126.801 15.3604 126.714C15.4583 126.669 15.5349 126.588 15.5746 126.488V126.488V126.425L17.2794 121.927L15.8013 121.407Z" fill="#7E57C2"/>
<path d="M43.3973 138.811V142.78C43.3887 142.849 43.3627 142.916 43.3216 142.973C43.2805 143.031 43.2257 143.077 43.1621 143.107C42.9858 143.196 42.7909 143.243 42.5932 143.243C42.3955 143.243 42.2006 143.196 42.0242 143.107C41.9607 143.077 41.9058 143.031 41.8648 142.973C41.8237 142.916 41.7976 142.849 41.7891 142.78V138.811C42.0364 138.679 42.3126 138.61 42.5932 138.61C42.8737 138.61 43.1499 138.679 43.3973 138.811Z" fill="#7E57C2"/>
<path d="M68.8434 93.0551C68.8434 92.0011 67.9196 90.8841 65.9713 89.6202C62.3727 87.2856 54.3357 82.5995 49.3011 79.8071C49.2993 79.797 49.2941 79.7879 49.2865 79.781C49.2789 79.7742 49.2693 79.7701 49.2591 79.7693C45.3834 77.4178 41.768 66.219 39.089 57.7118C38.1736 54.8103 37.0567 53.1684 35.7298 52.3958C35.4149 52.2152 34.2518 51.577 33.9914 51.4216C31.3628 49.8428 27.907 51.7366 23.6072 54.0922C19.6433 56.2589 16.5486 59.0345 15.9272 66.4038C15.5451 70.8884 15.9062 79.4586 16.8174 85.9545C18.1359 96.809 19.7567 96.8258 22.1039 98.6398C26.1518 101.772 35.2637 106.156 39.1142 107.651C46.0762 110.389 51.7701 106.164 56.0111 104.069C59.8993 102.105 63.6531 99.8863 67.2478 97.4262C68.3101 96.6578 68.8602 95.8768 68.8476 95.0538C68.835 94.7305 68.8434 93.3952 68.8434 93.0551Z" fill="#7E57C2"/>
<path opacity="0.25" d="M68.8434 93.0551C68.8434 92.0011 67.9196 90.8841 65.9713 89.6202C62.3727 87.2856 54.3357 82.5995 49.3011 79.8071C49.2993 79.797 49.2941 79.7879 49.2865 79.781C49.2789 79.7742 49.2693 79.7701 49.2591 79.7693C45.3834 77.4178 41.768 66.219 39.089 57.7118C38.1736 54.8103 37.0567 53.1684 35.7298 52.3958C35.4149 52.2152 34.2518 51.577 33.9914 51.4216C31.3628 49.8428 27.907 51.7366 23.6072 54.0922C19.6433 56.2589 16.5486 59.0345 15.9272 66.4038C15.5451 70.8884 15.9062 79.4586 16.8174 85.9545C18.1359 96.809 19.7567 96.8258 22.1039 98.6398C26.1518 101.772 35.2637 106.156 39.1142 107.651C46.0762 110.389 51.7701 106.164 56.0111 104.069C59.8993 102.105 63.6531 99.8863 67.2478 97.4262C68.3101 96.6578 68.8602 95.8768 68.8476 95.0538C68.835 94.7305 68.8434 93.3952 68.8434 93.0551Z" fill="black"/>
<path d="M35.574 52.3076C32.9664 50.9387 29.5778 52.7989 25.3871 55.0958C22.704 56.5696 20.4155 58.3122 19.0256 61.5749L17.2788 60.5503C18.6687 57.3003 20.953 55.5577 23.6277 54.0922C27.9318 51.7366 31.3834 49.8428 34.0162 51.4216L35.574 52.3076Z" fill="#7E57C2"/>
<path d="M65.988 89.6195C63.6533 88.1037 63.6029 87.7174 49.1918 79.735C49.2158 79.7408 49.2385 79.7508 49.259 79.7644C45.3875 77.4046 41.7763 66.2141 39.0973 57.7111C36.3722 49.0695 31.833 51.5721 25.3959 55.0993C21.4236 57.2618 18.3289 60.0415 17.6991 67.4109C17.0692 74.7802 18.4339 93.025 20.9491 95.2505C23.6911 98.2822 34.6968 103.917 39.0931 105.647C46.0551 108.385 51.749 104.161 55.9901 102.065C59.8856 100.098 63.6464 97.875 67.2477 95.41C69.6537 93.6548 69.4312 91.8618 65.988 89.6195Z" fill="#7E57C2"/>
<g opacity="0.1">
<path d="M25.3871 55.0993C31.8242 51.5721 36.3634 49.0695 39.0885 57.7111C41.7675 66.2183 45.3871 77.4172 49.2586 79.7686C49.2586 79.7686 42.6115 79.7686 32.9832 84.9628C22.9727 90.367 21.4442 95.6536 20.9865 95.2757C18.4671 93.1761 17.0814 74.776 17.7071 67.4109C18.3327 60.0457 21.4232 57.2618 25.3871 55.0993Z" fill="black"/>
</g>
<path d="M70.4137 128.688L26.3154 103.229L99.9707 60.7266L144.065 86.1853L70.4137 128.688Z" fill="#455A64"/>
<path d="M26.3154 103.229V154.147L28.6375 155.486V120.647L68.0916 143.427V178.266L70.4137 179.606V128.688L26.3154 103.229Z" fill="#263238"/>
<path d="M28.6372 155.486L30.9593 154.147V121.986L28.6372 120.647V155.486Z" fill="black"/>
<path d="M70.4136 179.606L72.7356 178.266V143.427L141.747 103.607V138.447L144.065 137.107V86.1855L70.4136 128.688V179.606Z" fill="#37474F"/>
<path d="M141.747 138.446L139.425 137.107V104.946L141.747 103.607V138.446Z" fill="#263238"/>
<g opacity="0.2">
<path d="M66.408 118.644C64.1531 119.941 64.1531 122.049 66.408 123.351C68.6628 124.652 72.2866 124.648 74.5583 123.351C76.83 122.053 76.809 119.941 74.5583 118.644C72.3076 117.346 68.667 117.342 66.408 118.644Z" fill="black"/>
</g>
<g opacity="0.2">
<path d="M33.8482 103.2L50.0313 112.551C50.1722 112.624 50.3284 112.661 50.4869 112.661C50.6454 112.661 50.8016 112.624 50.9425 112.551L62.8635 105.669C62.9184 105.65 62.966 105.615 62.9998 105.568C63.0335 105.521 63.0516 105.464 63.0516 105.406C63.0516 105.348 63.0335 105.292 62.9998 105.245C62.966 105.198 62.9184 105.163 62.8635 105.144L46.6721 95.7885C46.5305 95.7182 46.3746 95.6816 46.2165 95.6816C46.0584 95.6816 45.9025 95.7182 45.7609 95.7885L33.8398 102.675C33.5963 102.818 33.5963 103.053 33.8482 103.2Z" fill="black"/>
</g>
<g opacity="0.2">
<path d="M33.8482 104.871L50.0313 114.222C50.1722 114.295 50.3284 114.333 50.4869 114.333C50.6453 114.333 50.8015 114.295 50.9424 114.222L62.8635 107.34C63.1154 107.193 63.1154 106.958 62.8635 106.815L46.672 97.4599C46.5304 97.3896 46.3745 97.353 46.2164 97.353C46.0584 97.353 45.9024 97.3896 45.7608 97.4599L33.8482 104.342C33.7938 104.362 33.7468 104.398 33.7136 104.445C33.6804 104.492 33.6626 104.549 33.6626 104.607C33.6626 104.664 33.6804 104.721 33.7136 104.768C33.7468 104.816 33.7938 104.852 33.8482 104.871V104.871Z" fill="black"/>
</g>
<path d="M33.8482 104.325L50.0313 113.676C50.1722 113.749 50.3284 113.786 50.4869 113.786C50.6453 113.786 50.8015 113.749 50.9424 113.676L62.8803 106.811C63.1322 106.664 63.1322 106.429 62.8803 106.286L46.672 96.9135C46.5304 96.8432 46.3745 96.8066 46.2164 96.8066C46.0584 96.8066 45.9024 96.8432 45.7608 96.9135L33.8482 103.796C33.7938 103.815 33.7468 103.851 33.7136 103.899C33.6804 103.946 33.6626 104.002 33.6626 104.06C33.6626 104.118 33.6804 104.175 33.7136 104.222C33.7468 104.269 33.7938 104.305 33.8482 104.325V104.325Z" fill="#EBEBEB"/>
<path d="M45.7693 96.9139L34.4487 103.452L50.0313 112.459C50.1729 112.529 50.3289 112.566 50.4869 112.566C50.645 112.566 50.801 112.529 50.9425 112.459L62.2799 105.921L46.6721 96.9139C46.5316 96.8449 46.3772 96.8091 46.2207 96.8091C46.0642 96.8091 45.9098 96.8449 45.7693 96.9139V96.9139Z" fill="#E0E0E0"/>
<path d="M33.8482 102.679L50.0313 112.03C50.1722 112.103 50.3284 112.141 50.4869 112.141C50.6453 112.141 50.8015 112.103 50.9424 112.03L62.8803 105.131C62.9347 105.111 62.9817 105.076 63.0149 105.028C63.0481 104.981 63.0659 104.924 63.0659 104.867C63.0659 104.809 63.0481 104.752 63.0149 104.705C62.9817 104.658 62.9347 104.622 62.8803 104.602L46.672 95.2676C46.5311 95.1951 46.3749 95.1572 46.2164 95.1572C46.0579 95.1572 45.9017 95.1951 45.7608 95.2676L33.8482 102.15C33.7938 102.17 33.7468 102.205 33.7136 102.253C33.6804 102.3 33.6626 102.357 33.6626 102.414C33.6626 102.472 33.6804 102.529 33.7136 102.576C33.7468 102.623 33.7938 102.659 33.8482 102.679V102.679Z" fill="#FAFAFA"/>
<g opacity="0.2">
<path d="M52.1312 94.8861L60.8862 99.9544C61.0527 100.039 61.2368 100.083 61.4237 100.083C61.6105 100.083 61.7947 100.039 61.9612 99.9544L90.2164 83.6327C90.2817 83.611 90.3384 83.5693 90.3786 83.5135C90.4188 83.4577 90.4404 83.3907 90.4404 83.322C90.4404 83.2532 90.4188 83.1862 90.3786 83.1305C90.3384 83.0747 90.2817 83.033 90.2164 83.0113L81.4657 77.943C81.2984 77.8582 81.1136 77.814 80.9261 77.814C80.7386 77.814 80.5537 77.8582 80.3865 77.943L52.1312 94.2647C52.066 94.2864 52.0093 94.3281 51.9691 94.3839C51.9289 94.4396 51.9072 94.5066 51.9072 94.5754C51.9072 94.6441 51.9289 94.7111 51.9691 94.7669C52.0093 94.8227 52.066 94.8644 52.1312 94.8861V94.8861Z" fill="black"/>
</g>
<path d="M52.4336 93.6974V93.5001C52.4448 93.3311 52.4955 93.1671 52.5815 93.0213C52.6676 92.8754 52.7866 92.7518 52.9291 92.6603L78.8707 77.6697C79.0241 77.5912 79.1939 77.5503 79.3662 77.5503C79.5385 77.5503 79.7083 77.5912 79.8617 77.6697L87.8986 82.3222C88.0402 82.4147 88.1586 82.5386 88.2445 82.6843C88.3304 82.8299 88.3816 82.9934 88.3941 83.1621V83.3594C88.3823 83.5282 88.3313 83.692 88.2453 83.8377C88.1594 83.9835 88.0407 84.1072 87.8986 84.1992L61.957 99.1898C61.8036 99.2683 61.6338 99.3092 61.4615 99.3092C61.2892 99.3092 61.1194 99.2683 60.966 99.1898L52.9291 94.554C52.7853 94.4599 52.6656 94.3333 52.5796 94.1846C52.4935 94.0358 52.4435 93.869 52.4336 93.6974Z" fill="#E0E0E0"/>
<path d="M52.929 93.2147L60.9492 97.8673C61.1031 97.9438 61.2727 97.9837 61.4447 97.9837C61.6166 97.9837 61.7862 97.9438 61.9402 97.8673L87.8986 82.8767C87.9579 82.8561 88.0093 82.8175 88.0457 82.7663C88.082 82.7152 88.1016 82.654 88.1016 82.5912C88.1016 82.5284 88.082 82.4672 88.0457 82.416C88.0093 82.3649 87.9579 82.3263 87.8986 82.3057L79.8449 77.6531C79.6915 77.5746 79.5217 77.5337 79.3494 77.5337C79.1771 77.5337 79.0072 77.5746 78.8539 77.6531L52.9122 92.6437C52.8535 92.666 52.8032 92.7061 52.7683 92.7583C52.7333 92.8105 52.7156 92.8724 52.7174 92.9352C52.7193 92.998 52.7406 93.0587 52.7786 93.1088C52.8165 93.1589 52.8691 93.1959 52.929 93.2147V93.2147Z" fill="#FAFAFA"/>
<path d="M74.2092 121.332C76.1953 119.303 77.3626 114.235 75.4227 112.627H65.5675C63.6276 114.235 64.7949 119.299 66.7811 121.327L66.8356 121.386L66.9028 121.453L67.0834 121.613L67.1296 121.651L67.2807 121.764C67.3647 121.823 67.4529 121.877 67.5369 121.928C68.4549 122.394 69.4698 122.636 70.4993 122.636C71.5288 122.636 72.5437 122.394 73.4617 121.928V121.928C73.5505 121.877 73.6361 121.821 73.7179 121.76L73.8606 121.655L73.9194 121.609C73.9782 121.558 74.037 121.508 74.0916 121.453L74.1714 121.378L74.2092 121.332Z" fill="#EBEBEB"/>
<path d="M66.408 111.98C64.1531 113.278 64.1531 115.385 66.408 116.687C68.6628 117.989 72.2866 117.985 74.5583 116.687C76.83 115.39 76.809 113.278 74.5583 111.98C72.3076 110.683 68.667 110.678 66.408 111.98Z" fill="#FAFAFA"/>
<path d="M68.012 112.9C66.6431 113.693 66.6431 114.974 68.012 115.763C68.7799 116.155 69.6296 116.359 70.4915 116.359C71.3535 116.359 72.2032 116.155 72.9711 115.763C74.34 114.974 74.34 113.693 72.9711 112.9C72.2025 112.51 71.3531 112.308 70.4915 112.308C69.63 112.308 68.7806 112.51 68.012 112.9V112.9Z" fill="#EBEBEB"/>
<path d="M72.9707 114.261C72.2022 113.871 71.3527 113.668 70.4912 113.668C69.6297 113.668 68.7803 113.871 68.0117 114.261C67.6737 114.437 67.385 114.696 67.1719 115.012C67.385 115.329 67.6737 115.587 68.0117 115.764C68.7796 116.155 69.6293 116.359 70.4912 116.359C71.3532 116.359 72.2028 116.155 72.9707 115.764C73.31 115.589 73.599 115.33 73.8105 115.012C73.599 114.694 73.31 114.436 72.9707 114.261V114.261Z" fill="#E0E0E0"/>
<path d="M68.3143 115.012C67.613 114.3 67.01 113.498 66.5214 112.627C65.6815 111.161 65.5388 109.2 65.9671 108.957C66.3954 108.713 68.138 110.674 68.138 110.674C67.9772 109.845 67.9151 108.999 67.9532 108.155C68.0288 106.849 68.3437 105.665 68.7174 105.425C69.0912 105.186 69.931 106.832 70.2879 108.024C70.6448 109.217 70.859 110.2 70.859 110.2C71.0046 109.269 71.2193 108.352 71.5014 107.453C71.9213 106.215 72.3412 105.933 72.6393 106.059C72.9375 106.185 73.1474 106.756 73.2356 108.407C73.2681 109.194 73.2428 109.983 73.16 110.766C73.16 110.766 73.7773 110.09 74.4575 109.435C75.2092 108.717 75.5283 108.596 75.7424 108.755C75.9566 108.915 76.0154 110.015 74.8564 112.114C74.2792 113.183 73.5398 114.157 72.6645 114.999C72.6645 114.999 71.0563 116.049 68.3143 115.012Z" fill="#7E57C2"/>
<path d="M111.337 91.0224L113.437 65.7274C113.458 65.3171 113.373 64.9081 113.19 64.5403C113.007 64.1724 112.732 63.8582 112.391 63.6279C112.017 63.4463 111.605 63.3554 111.19 63.3627C110.774 63.37 110.365 63.4753 109.998 63.6699L82.2842 79.664C81.919 79.9028 81.6093 80.2171 81.3761 80.5859C81.1428 80.9546 80.9914 81.3691 80.9321 81.8014L78.8326 107.092C78.812 107.502 78.897 107.91 79.0793 108.278C79.2616 108.645 79.5352 108.96 79.874 109.192C80.2492 109.373 80.6618 109.463 81.0783 109.455C81.4949 109.447 81.9036 109.341 82.2716 109.145L109.985 93.1555C110.35 92.9168 110.659 92.603 110.892 92.2351C111.125 91.8673 111.277 91.4538 111.337 91.0224Z" fill="#7E57C2"/>
<path opacity="0.5" d="M111.337 91.0224L113.437 65.7274C113.458 65.3171 113.373 64.9081 113.19 64.5403C113.007 64.1724 112.732 63.8582 112.391 63.6279C112.017 63.4463 111.605 63.3554 111.19 63.3627C110.774 63.37 110.365 63.4753 109.998 63.6699L82.2842 79.664C81.919 79.9028 81.6093 80.2171 81.3761 80.5859C81.1428 80.9546 80.9914 81.3691 80.9321 81.8014L78.8326 107.092C78.812 107.502 78.897 107.91 79.0793 108.278C79.2616 108.645 79.5352 108.96 79.874 109.192C80.2492 109.373 80.6618 109.463 81.0783 109.455C81.4949 109.447 81.9036 109.341 82.2716 109.145L109.985 93.1555C110.35 92.9168 110.659 92.603 110.892 92.2351C111.125 91.8673 111.277 91.4538 111.337 91.0224Z" fill="white"/>
<path d="M111.337 91.0224L113.437 65.7274C113.458 65.3171 113.373 64.9081 113.19 64.5403C113.007 64.1724 112.732 63.8582 112.391 63.6279C112.017 63.4463 111.606 63.3554 111.19 63.3627C110.774 63.37 110.366 63.4753 109.998 63.6699L82.2843 79.664C81.9182 79.8922 81.6105 80.2028 81.3857 80.571L85.6898 83.0569V107.176L109.985 93.1513C110.349 92.9131 110.658 92.5999 110.891 92.2328C111.124 91.8657 111.276 91.453 111.337 91.0224Z" fill="#7E57C2"/>
<path opacity="0.8" d="M111.337 91.0224L113.437 65.7274C113.458 65.3171 113.373 64.9081 113.19 64.5403C113.007 64.1724 112.732 63.8582 112.391 63.6279C112.017 63.4463 111.606 63.3554 111.19 63.3627C110.774 63.37 110.366 63.4753 109.998 63.6699L82.2843 79.664C81.9182 79.8922 81.6105 80.2028 81.3857 80.571L85.6898 83.0569V107.176L109.985 93.1513C110.349 92.9131 110.658 92.5999 110.891 92.2328C111.124 91.8657 111.276 91.453 111.337 91.0224Z" fill="white"/>
<path d="M81.1549 108.44L83.2545 83.1494C83.3135 82.7171 83.4648 82.3025 83.6981 81.9337C83.9313 81.5649 84.2412 81.2506 84.6066 81.0121L112.32 65.018C113.005 64.6233 113.504 64.9424 113.441 65.7276L111.342 91.0226C111.282 91.4547 111.13 91.869 110.897 92.2376C110.664 92.6063 110.355 92.9207 109.99 93.1599L82.2761 109.15C81.5916 109.545 81.1046 109.225 81.1549 108.44Z" fill="#7E57C2"/>
<path opacity="0.65" d="M81.1549 108.44L83.2545 83.1494C83.3135 82.7171 83.4648 82.3025 83.6981 81.9337C83.9313 81.5649 84.2412 81.2506 84.6066 81.0121L112.32 65.018C113.005 64.6233 113.504 64.9424 113.441 65.7276L111.342 91.0226C111.282 91.4547 111.13 91.869 110.897 92.2376C110.664 92.6063 110.355 92.9207 109.99 93.1599L82.2761 109.15C81.5916 109.545 81.1046 109.225 81.1549 108.44Z" fill="white"/>
<path d="M95.448 88.1463C95.5571 86.853 96.4641 85.3287 97.4761 84.7409C98.4881 84.153 99.2229 84.7409 99.1137 86.0216C99.0046 87.3023 98.1018 88.8433 97.0898 89.4312C96.0778 90.019 95.343 89.4438 95.448 88.1463Z" fill="#7E57C2"/>
<path d="M96.0991 95.7931L102.91 91.8376L101.751 91.1699L94.9443 95.1254L96.0991 95.7931Z" fill="#7E57C2"/>
<g opacity="0.85">
<path d="M96.0991 95.7931L102.91 91.8376L101.751 91.1699L94.9443 95.1254L96.0991 95.7931Z" fill="white"/>
</g>
<path d="M106.067 103.452L97.7786 108.239C97.6151 108.327 97.4308 108.369 97.2453 108.36C97.0889 108.357 96.9354 108.318 96.796 108.247C96.796 108.247 96.796 108.247 96.796 108.247L93.147 106.147H93.1261C92.9885 106.053 92.8745 105.928 92.7929 105.782C92.7114 105.637 92.6645 105.474 92.6558 105.308V105.114C92.6558 104.8 92.8699 104.669 93.147 104.829L95.3515 106.089L95.8428 106.374L95.7337 105.816L94.961 95.125L96.1158 95.7968L102.927 91.8413L106.458 102.612C106.479 102.774 106.454 102.94 106.385 103.088C106.315 103.237 106.205 103.363 106.067 103.452V103.452Z" fill="#7E57C2"/>
<g opacity="0.5">
<path d="M106.067 103.452L97.7786 108.239C97.6151 108.327 97.4308 108.369 97.2453 108.36C97.0889 108.357 96.9354 108.318 96.796 108.247C96.796 108.247 96.796 108.247 96.796 108.247L93.147 106.147H93.1261C92.9885 106.053 92.8745 105.928 92.7929 105.782C92.7114 105.637 92.6645 105.474 92.6558 105.308V105.114C92.6558 104.8 92.8699 104.669 93.147 104.829L95.3515 106.089L95.8428 106.374L95.7337 105.816L94.961 95.125L96.1158 95.7968L102.927 91.8413L106.458 102.612C106.479 102.774 106.454 102.94 106.385 103.088C106.315 103.237 106.205 103.363 106.067 103.452V103.452Z" fill="white"/>
</g>
<path d="M92.7944 104.749L95.6204 103.116L96.1957 106.924L92.7944 104.749Z" fill="#7E57C2"/>
<g opacity="0.25">
<path d="M92.7944 104.749L95.6204 103.116L96.1957 106.924L92.7944 104.749Z" fill="black"/>
</g>
<path d="M96.0994 95.7973L94.9446 95.1255L95.7214 105.787C95.7844 106.093 95.6081 106.207 95.3393 106.06L93.1348 104.8C92.8577 104.64 92.6436 104.771 92.6436 105.086V105.279C92.6522 105.445 92.6992 105.608 92.7807 105.754C92.8623 105.899 92.9763 106.024 93.1139 106.119H93.1348L96.7838 108.218C96.9232 108.289 97.0767 108.328 97.2331 108.331L96.0994 95.7973Z" fill="#7E57C2"/>
<g opacity="0.25">
<path d="M96.0989 95.7968L94.9441 95.125L95.721 105.786C95.7839 106.093 95.6076 106.206 95.3388 106.059L93.1344 104.8C92.8572 104.64 92.6431 104.77 92.6431 105.085V105.278C92.6518 105.445 92.6987 105.607 92.7803 105.753C92.8618 105.899 92.9758 106.024 93.1134 106.118H93.1344L96.7833 108.218C96.9227 108.289 97.0763 108.327 97.2326 108.331L96.0989 95.7968Z" fill="white"/>
</g>
<path opacity="0.2" d="M65.085 102.788L66.3615 103.523L76.4307 97.6275L77.5435 96.3174L75.2256 96.9304L65.085 102.788Z" fill="black"/>
<path d="M75.3179 96.0361L77.4636 95.6162C77.4771 95.6139 77.491 95.6158 77.5035 95.6216C77.5159 95.6274 77.5262 95.637 77.5331 95.6488C77.54 95.6607 77.543 95.6745 77.5418 95.6881C77.5407 95.7018 77.5353 95.7148 77.5266 95.7254L76.0653 97.3714L75.3179 96.0361Z" fill="#FFA8A7"/>
<path d="M77.5268 95.7254C77.5356 95.7148 77.5409 95.7018 77.5421 95.6881C77.5433 95.6745 77.5402 95.6607 77.5334 95.6488C77.5265 95.637 77.5162 95.6274 77.5037 95.6216C77.4913 95.6158 77.4774 95.6139 77.4638 95.6162L77.0439 95.696C77.1018 95.7317 77.1486 95.7828 77.1791 95.8436C77.2095 95.9045 77.2223 95.9726 77.2161 96.0403V96.0781L77.5268 95.7254Z" fill="#263238"/>
<path d="M68.0874 101.957L68.2637 101.856L68.4779 101.739L76.0655 97.3719C76.1366 97.1365 76.1156 96.8828 76.0067 96.6623C75.9503 96.5098 75.8578 96.3733 75.7371 96.2644C75.6165 96.1554 75.4713 96.0773 75.3139 96.0366L67.7095 100.399L67.2896 100.63C67.5793 100.513 68.3393 101.819 68.0874 101.957Z" fill="#7E57C2"/>
<path d="M68.7423 101.579L69.1329 101.352C69.2462 101.289 69.1832 101.008 69.0447 100.714C68.8683 100.324 68.5156 99.9456 68.3602 100.025L68.0747 100.193L67.9697 100.252C68.1251 100.172 68.4778 100.55 68.6542 100.941C68.7843 101.222 68.8515 101.495 68.7507 101.571L68.7423 101.579Z" fill="#EBEBEB"/>
<path d="M68.8394 101.52C69.1081 101.377 68.3397 100.051 68.0668 100.193L67.6763 100.42C67.945 100.277 68.7134 101.604 68.4447 101.747L68.8394 101.52Z" fill="#7E57C2"/>
<path d="M68.0873 101.957L68.4778 101.738C68.7423 101.6 68.0075 100.315 67.7304 100.399L67.3398 100.626C67.5792 100.512 68.3392 101.818 68.0873 101.957Z" fill="#EBEBEB"/>
<path opacity="0.15" d="M77.5351 95.6498L77.4637 95.6162L75.9059 96.456L67.8563 101.075C67.8563 101.05 67.8312 101.05 67.8228 101.075C68.0495 101.432 68.2217 101.881 68.0705 101.957L68.2469 101.856L68.461 101.738L76.0655 97.3714L77.5225 95.7254C77.5316 95.7153 77.5376 95.7028 77.5398 95.6894C77.5421 95.676 77.5404 95.6623 77.5351 95.6498V95.6498Z" fill="black"/>
<path d="M66.4288 102.902L68.0706 101.957C68.1881 101.898 68.1252 101.617 67.9908 101.327C67.8144 100.933 67.4617 100.555 67.3063 100.63L65.6561 101.575C65.3286 101.764 65.6309 102.478 65.9963 102.793C66.0486 102.853 66.1181 102.896 66.1954 102.915C66.2727 102.935 66.3541 102.93 66.4288 102.902V102.902Z" fill="#F28F8F"/>
<path opacity="0.1" d="M66.5254 102.389C66.484 102.211 66.4018 102.045 66.2852 101.905C66.1686 101.764 66.0208 101.652 65.8535 101.579C65.8134 101.563 65.77 101.558 65.7274 101.564C65.6847 101.57 65.6443 101.586 65.61 101.612C65.3622 101.839 65.6478 102.494 65.9963 102.792C66.0476 102.85 66.1149 102.891 66.1897 102.911C66.2644 102.93 66.3432 102.927 66.4162 102.902C66.5422 102.83 66.5883 102.641 66.5254 102.389Z" fill="black"/>
<path d="M124.799 24.4261C124.718 24.3813 124.627 24.3582 124.535 24.3589H119.735L117.753 25.501V32.3581L119.735 31.2285L121.444 29.255V34.0839L123.426 32.9417L128.616 27.357C128.666 27.2983 128.703 27.2293 128.723 27.155C128.743 27.0807 128.747 27.0029 128.735 26.9269C128.722 26.8509 128.693 26.7786 128.649 26.7151C128.605 26.6516 128.548 26.5984 128.482 26.5592L124.799 24.4261Z" fill="#455A64"/>
<path d="M121.453 34.0839L123.435 32.9417L128.625 27.357C128.691 27.2808 128.734 27.1872 128.748 27.0873C128.762 26.9874 128.748 26.8855 128.705 26.7937C128.663 26.702 128.596 26.6244 128.511 26.5701C128.426 26.5158 128.327 26.4873 128.226 26.4878H123.435L121.453 27.6341V34.0839Z" fill="#37474F"/>
<path d="M123.447 20.8274C123.412 20.1681 123.222 19.5264 122.892 18.9544C122.562 18.3824 122.102 17.8963 121.549 17.5354V17.5354C120.96 17.2359 120.308 17.0798 119.647 17.0798C118.986 17.0798 118.334 17.2359 117.745 17.5354L103.296 25.8075C102.742 26.1683 102.281 26.6549 101.95 27.2277C101.62 27.8005 101.429 28.4433 101.394 29.1037V44.7031C101.43 45.3628 101.621 46.0048 101.951 46.5768C102.282 47.1488 102.743 47.6348 103.296 47.9952C103.886 48.2946 104.537 48.4507 105.198 48.4507C105.859 48.4507 106.511 48.2946 107.101 47.9952L121.73 39.5971C123.439 38.6229 123.456 37.6446 123.456 36.431L123.447 20.8274Z" fill="#37474F"/>
<path d="M101.394 44.7031C101.43 45.3628 101.621 46.0048 101.951 46.5768C102.282 47.1488 102.743 47.6348 103.296 47.9952V47.9952C103.833 48.265 104.42 48.4187 105.02 48.4462C105.619 48.4737 106.218 48.3744 106.777 48.1547C105.883 48.4907 105.198 47.9784 105.198 46.895V31.2956C105.222 30.634 105.414 29.9894 105.757 29.4229L101.953 27.231C101.611 27.7977 101.42 28.4424 101.398 29.1037L101.394 44.7031Z" fill="#263238"/>
<path d="M123.388 20.3111C123.166 19.5007 122.427 19.2446 121.549 19.7526L107.096 28.0037C106.533 28.3514 106.071 28.8408 105.757 29.423L101.978 27.2353C102.293 26.6526 102.755 26.162 103.317 25.8118L117.762 17.5397C118.352 17.2415 119.004 17.0862 119.666 17.0862C120.327 17.0862 120.98 17.2415 121.57 17.5397V17.5397C122.045 17.8541 122.452 18.262 122.764 18.7384C123.077 19.2149 123.289 19.75 123.388 20.3111V20.3111Z" fill="#455A64"/>
<path d="M116.217 39.6517L112.807 41.6211V27.9742L116.217 26.0049V39.6517Z" fill="#7E57C2"/>
<path d="M119.631 28.583V33.1306L109.397 39.0386V34.491L119.631 28.583Z" fill="#7E57C2"/>
<path d="M154.314 39.916C157.674 40.0084 158.627 41.3521 160.651 44.2452C162.675 47.1384 169.561 58.102 169.561 58.102L179.316 61.8476L178.031 67.5373C178.031 67.5373 164.993 65.3286 164.14 64.8289C163.288 64.3292 156.939 53.8694 156.939 53.8694L154.314 39.916Z" fill="#E6E6E6"/>
<path d="M151.745 40.0087C154.919 39.2151 156.322 40.9871 157.38 42.948C162.188 51.766 164.14 104.674 164.14 104.674C164.14 104.674 153.416 108.953 145.459 103.931L151.745 40.0087Z" fill="#F0F0F0"/>
<path d="M161.969 130.947L159.962 138.585C159.962 138.585 157.648 139.95 155.654 138.606C154.071 137.54 154.167 136.276 154.167 136.276L154.26 135.125L154.486 126.244L161.969 130.947Z" fill="#B16668"/>
<path d="M152.312 140.403C151.762 141.625 151.447 145.194 151.447 145.194C151.447 145.194 151.783 146.509 153.609 147.672L155.385 142.952L152.312 140.403Z" fill="#263238"/>
<path d="M153.609 147.689L158.224 147.055L159.979 143.38L154.634 144.968L153.609 147.689Z" fill="black"/>
<path d="M160.311 137.262L160.559 136.33C161.26 136.368 161.197 137.754 161.247 138.157C161.403 139.312 161.52 140.466 161.697 141.617C161.88 142.891 162.176 144.146 162.583 145.367C163.003 146.53 163.246 147.768 163.956 148.797C164.665 149.826 165.913 150.435 166.92 151.128C167.187 151.28 167.408 151.502 167.559 151.77C167.79 152.282 167.466 152.874 167.067 153.265C166.359 153.926 165.468 154.356 164.51 154.499C163.556 154.64 162.587 154.64 161.634 154.499C159.94 154.317 158.318 153.717 156.914 152.753C155.562 151.787 155.268 149.876 155.05 148.331C154.873 147.071 154.982 145.606 154.462 144.426C153.941 143.246 152.455 141.697 152.312 140.42C152.251 139.338 152.48 138.26 152.975 137.296C153.517 136.259 153.908 134.936 154.26 135.125L154.197 135.881C154.197 135.826 154.546 137.334 156.717 137.871C157.737 138.127 159.664 138.119 160.311 137.262Z" fill="#263238"/>
<path d="M157.023 145.535C157.082 146.946 157.023 147.529 157.023 148.167C157.082 149.335 157.392 150.145 157.657 151.279C157.771 151.745 157.931 152.198 158.136 152.631C158.354 153.135 158.761 153.815 158.522 154.311C158.404 154.538 158.241 154.739 158.043 154.903C157.17 155.651 156.042 156.034 154.894 155.973C154.289 155.967 153.697 155.797 153.181 155.482C152.169 154.819 151.77 153.609 151.228 152.589C150.636 151.485 150.981 150.909 150.884 149.696C150.766 148.091 150.557 146.494 150.258 144.913C152.446 142.411 154.285 144.838 157.023 145.535Z" fill="#B16668"/>
<path d="M160.373 75.7383C163.653 87.1681 169.191 106.593 167.638 112.639C166.462 117.17 161.339 133.714 161.339 133.714C159.361 133.991 155.318 134.432 153.743 130.968C153.344 125.346 151.958 87.1681 151.958 87.1681L160.373 75.7383Z" fill="#7E57C2"/>
<path opacity="0.4" d="M160.373 75.7383C163.653 87.1681 169.191 106.593 167.638 112.639C166.462 117.17 161.339 133.714 161.339 133.714C159.361 133.991 155.318 134.432 153.743 130.968C153.344 125.346 151.958 87.1681 151.958 87.1681L160.373 75.7383Z" fill="white"/>
<path opacity="0.25" d="M151.976 87.1471C154.058 85.18 155.993 83.0637 157.767 80.8149C157.767 80.8149 157.347 83.5233 153.614 87.2563C153.614 87.2563 159.87 111.355 159.832 115.201C159.795 119.047 157.733 132.837 157.733 132.837L151.976 87.1471Z" fill="black"/>
<path d="M160.374 75.7379C157.699 81.2849 156.649 83.5019 151.976 87.1677C151.976 87.1677 157.691 110.917 157.943 115.528C158.363 123.191 157.376 140.344 157.023 145.555C156.137 146.714 151.82 146.912 150.46 145.925C149.839 143.515 147.752 135.032 146.773 127.424C146.051 121.801 146.975 116.771 147.092 115.297C144.065 107.575 137.267 96.3048 134.781 88.2301C134.373 86.8324 134.115 85.3952 134.012 83.9428C133.458 78.8242 135.553 74.9149 136.784 72.1855L160.374 75.7379Z" fill="#7E57C2"/>
<g opacity="0.5">
<path d="M160.374 75.7379C157.699 81.2849 156.649 83.5019 151.976 87.1677C151.976 87.1677 157.691 110.917 157.943 115.528C158.363 123.191 157.376 140.344 157.023 145.555C156.137 146.714 151.82 146.912 150.46 145.925C149.839 143.515 147.752 135.032 146.773 127.424C146.051 121.801 146.975 116.771 147.092 115.297C144.065 107.575 137.267 96.3048 134.781 88.2301C134.373 86.8324 134.115 85.3952 134.012 83.9428C133.458 78.8242 135.553 74.9149 136.784 72.1855L160.374 75.7379Z" fill="white"/>
</g>
<path d="M149.797 153.567C149.465 154.861 149.767 158.426 149.767 158.426C149.767 158.426 150.317 159.66 152.312 160.496L153.257 155.549L149.797 153.567Z" fill="#263238"/>
<path d="M152.312 160.496L156.746 159.081L157.842 155.171L152.857 157.64L152.312 160.496Z" fill="black"/>
<path d="M157.006 149.095L157.04 148.167C157.636 148.466 158.917 153.307 160.672 156.641C162.276 159.681 165.492 161.394 166.53 162.721C167.915 164.498 165.169 166.744 160.798 165.77C158.631 165.283 155.339 163.863 154.474 162.39C153.609 160.916 153.315 158.22 152.597 157.137C151.879 156.053 150.153 154.798 149.796 153.567C149.518 152.453 149.531 151.286 149.834 150.179C150.187 149.066 150.17 147.924 150.729 147.832L150.813 148.705C151.102 149.305 152.236 149.994 154.445 150.137C155.499 150.2 156.519 150.061 157.006 149.095Z" fill="#37474F"/>
<path d="M149.272 30.4474L147.067 37.9007C140.936 37.9007 137.149 31.9297 137.149 25.7991C137.149 19.6433 141.071 14.4995 147.227 14.4995H149.225C155.381 14.4995 160.374 18.5852 160.374 24.7452C160.374 28.7552 155.402 30.4474 149.272 30.4474Z" fill="#263238"/>
<path d="M161.524 19.0513C161.995 18.2827 162.222 17.3898 162.175 16.4898C162.146 16.0396 162.015 15.6018 161.791 15.2097C161.568 14.8177 161.258 14.4815 160.886 14.2266C159.74 13.4959 158.153 13.8403 157.107 14.6843C157.022 13.8824 156.628 13.1452 156.009 12.6287C155.39 12.1122 154.594 11.857 153.79 11.9171C152.769 11.9969 151.862 12.5637 150.981 13.076C149.479 13.8371 147.859 14.3355 146.189 14.5499L148.066 15.2721C147.811 15.665 147.649 16.1109 147.592 16.5758C147.536 17.0408 147.586 17.5126 147.739 17.9553C147.819 18.1368 147.918 18.3099 148.033 18.4718C149.279 20.3356 151 21.8331 153.018 22.8096C155.036 23.7862 157.278 24.2065 159.513 24.0271C160.14 24.0136 160.753 23.8402 161.293 23.5232C161.609 23.2988 161.876 23.0132 162.079 22.6834C162.471 22.1103 162.664 21.4244 162.629 20.7309C162.604 20.3797 162.489 20.0408 162.296 19.7467C162.103 19.4526 161.837 19.2131 161.524 19.0513V19.0513Z" fill="#263238"/>
<path d="M144.485 40.8862L140.466 41.3061C137.8 41.957 136.595 43.1327 136.322 45.5052C136.196 46.6053 135.528 49.5362 136.46 53.2104C137.3 56.536 139.559 64.678 139.559 64.678C139.559 64.678 136.641 71.9969 135.272 75.7382C144.753 81.9234 156.456 79.4795 160.386 75.7382C160.055 72.2026 158.803 68.9064 158.522 65.7529C158.522 65.7529 158.724 60.8232 159.114 58.6859C162.116 55.4149 161.73 52.2824 160.374 49.7588C157.888 45.0937 154.138 40.9996 152.929 41.0038L144.485 40.8862Z" fill="#455A64"/>
<path d="M151.69 38.2366C152.891 38.5305 153.828 39.0176 154.315 39.9162C154.802 40.8148 158.602 46.7984 158.602 46.7984C158.602 46.7984 155.537 42.7631 153.227 41.5412C152.756 41.266 152.233 41.0916 151.69 41.0289V38.2366Z" fill="#E0E0E0"/>
<path d="M144.484 40.8862C144.484 40.8862 148.683 49.6412 149.431 55.5493C150.178 61.4573 148.591 81.6127 148.591 88.0078C148.591 95.7172 148.616 108.44 148.616 108.44C148.616 108.44 143.825 108.44 140.533 107.5C138.127 106.815 135.276 105.585 133.55 103.523C133.55 103.523 133.08 87.7432 134.071 80.227C135.007 73.0886 138.807 64.2958 138.807 64.2958L133.936 45.7277C133.936 45.7277 134.163 42.5364 137.165 41.6421C140.008 40.7854 144.484 40.8862 144.484 40.8862Z" fill="#FAFAFA"/>
<path d="M140.534 44.7073L135.562 51.9842L138.791 64.2874C138.791 64.2874 135.793 70.6153 134.688 76.7417C137.682 68.2723 140.387 65.7318 140.387 65.7318L138.631 58.5683C138.631 58.5683 139.249 56.3134 140.109 52.4671C140.97 48.6208 140.827 46.3911 140.534 44.7073Z" fill="#EBEBEB"/>
<path d="M143.25 51.5685C143.25 51.2032 143.217 50.4137 143.154 49.4144C142.843 44.5393 142.7 40.1303 144.346 39.7566L144.493 40.4284C143.288 40.6888 143.687 46.9831 143.838 49.3514C143.905 50.3718 143.956 51.1738 143.939 51.5769L143.25 51.5685Z" fill="#7E57C2"/>
<path d="M144.485 38.2366C144.178 38.2382 143.878 38.3236 143.617 38.4835C143.356 38.6433 143.143 38.8716 143.002 39.1436C142.608 39.8154 141.776 40.9449 141.776 40.9449C141.776 40.9449 141.747 45.4211 142.196 46.5843C142.582 47.592 147.327 51.325 147.327 51.325C147.327 51.325 146.866 55.2763 146.828 56.6577C146.79 58.0392 149.225 63.0487 149.523 65.7318C149.523 65.7318 150.027 59.2149 149.633 56.1874C148.94 50.9177 145.652 43.0361 144.485 40.8778V38.2366Z" fill="#EBEBEB"/>
<path d="M142.255 67.8732H142.197V67.3945C142.767 67.3468 143.313 67.1435 143.775 66.8066C143.282 66.478 142.84 66.0775 142.465 65.6183C141.688 64.6147 139.992 57.4554 140.517 55.7884C140.937 54.3901 142.327 51.3038 143.553 51.2534H143.582C144.804 51.2534 146.408 54.1675 146.962 55.5112C147.626 57.1321 146.543 64.409 145.854 65.4713C145.52 65.9625 145.114 66.4 144.649 66.7688C145.136 67.0695 145.697 67.2267 146.27 67.2223L146.328 67.6968C145.583 67.7095 144.852 67.4973 144.229 67.088C143.658 67.5304 142.974 67.8026 142.255 67.8732ZM143.603 51.7279C142.885 51.7573 141.596 54.0458 141.008 55.9269C140.525 57.4596 142.159 64.388 142.877 65.3202C143.258 65.7816 143.71 66.1798 144.216 66.5001C144.703 66.138 145.128 65.6999 145.476 65.2026C146.114 64.2158 147.156 57.1741 146.538 55.6876C145.791 53.903 144.325 51.7279 143.603 51.7279Z" fill="#455A64"/>
<path d="M147.029 67.4241C147.035 67.5634 146.999 67.7013 146.927 67.8204C146.854 67.9394 146.748 68.0343 146.621 68.0929C146.495 68.1515 146.354 68.1713 146.216 68.1498C146.078 68.1283 145.95 68.0664 145.847 67.972C145.744 67.8776 145.672 67.7548 145.639 67.6193C145.606 67.4838 145.614 67.3415 145.662 67.2105C145.71 67.0795 145.796 66.9657 145.908 66.8834C146.021 66.8011 146.155 66.754 146.295 66.748C146.481 66.7412 146.663 66.8084 146.801 66.935C146.939 67.0615 147.021 67.2373 147.029 67.4241Z" fill="#263238"/>
<path d="M142.91 67.6005C142.916 67.7399 142.88 67.8778 142.808 67.9968C142.735 68.1159 142.629 68.2107 142.502 68.2693C142.375 68.328 142.234 68.3478 142.097 68.3263C141.959 68.3047 141.83 68.2429 141.728 68.1484C141.625 68.054 141.553 67.9313 141.52 67.7957C141.487 67.6602 141.495 67.5179 141.543 67.387C141.591 67.256 141.676 67.1421 141.789 67.0598C141.902 66.9775 142.036 66.9304 142.175 66.9245C142.268 66.9205 142.361 66.9349 142.448 66.9668C142.535 66.9986 142.615 67.0473 142.683 67.1101C142.751 67.1729 142.807 67.2485 142.845 67.3327C142.884 67.4168 142.907 67.5078 142.91 67.6005V67.6005Z" fill="#263238"/>
<path d="M147.096 58.6651L146.676 58.6357C146.656 58.6347 146.635 58.6294 146.617 58.6203C146.598 58.6112 146.582 58.5983 146.568 58.5826C146.555 58.5669 146.545 58.5485 146.539 58.5288C146.533 58.509 146.531 58.4882 146.533 58.4677C146.613 57.124 146.571 56.133 146.407 55.7383C145.694 53.9999 144.224 51.8248 143.582 51.85C142.939 51.8752 141.654 54.1721 141.091 55.9651C140.966 56.385 141.003 57.3634 141.201 58.6945C141.207 58.7356 141.197 58.7775 141.172 58.8112C141.148 58.8449 141.111 58.8678 141.07 58.875L140.651 58.938C140.63 58.941 140.608 58.9397 140.588 58.9343C140.567 58.9289 140.548 58.9195 140.531 58.9066C140.514 58.8937 140.5 58.8776 140.49 58.8592C140.479 58.8408 140.473 58.8205 140.47 58.7994C140.247 57.3046 140.222 56.28 140.386 55.7467C140.688 54.7894 142.103 51.1908 143.531 51.1278C144.959 51.0648 146.676 54.5332 147.058 55.4654C147.268 55.9777 147.331 57.0022 147.235 58.5139C147.233 58.5514 147.218 58.587 147.193 58.6147C147.168 58.6423 147.133 58.6602 147.096 58.6651V58.6651Z" fill="#7E57C2"/>
<path d="M130.544 95.2637C131.275 95.9481 131.673 96.8677 132.425 98.2282C133.177 99.5887 136.884 99.7189 137.178 95.8936C137.401 93.013 136.393 92.0388 134.373 89.7966C132.253 87.4367 131.434 87.0504 131.531 84.8627C131.585 83.7835 133.21 68.1631 133.21 68.1631L138.556 53.4371C138.556 53.4371 140.487 46.5549 139.517 41.7596C139.517 41.7596 136.053 41.4783 133.605 43.9221C130.745 46.7775 127.508 60.8946 126.794 63.7458C125.766 67.3585 125.317 71.1114 125.463 74.8648C125.631 79.4459 125.648 89.0197 126.257 91.1319C126.866 93.244 128.575 93.4203 130.544 95.2637Z" fill="#B16668"/>
<path d="M139.756 41.1257C139.756 41.1257 136.074 40.8947 133.92 42.6583C131.766 44.4219 130.426 49.3516 128.843 54.277C127.26 59.2025 125.849 64.002 125.329 67.4536C124.909 70.3426 125.748 85.5934 125.748 85.5934C125.748 85.5934 128.201 86.4836 131.53 84.8628L133.592 68.18L139.765 51.4343C140.903 48.0918 140.9 44.4663 139.756 41.1257V41.1257Z" fill="#F0F0F0"/>
<path d="M154.105 20.1262C156.91 20.416 159.253 23.3973 159.098 30.1619C158.963 35.8978 157.103 37.3003 156.158 37.7202C155.213 38.1401 153.425 38.1947 151.678 37.9007V41.029C151.678 41.029 153.693 45.4716 152.837 47.0588C148.054 45.0853 144.485 40.8862 144.485 40.8862V33.7983C144.485 33.7983 143.305 35.1966 141.373 33.9158C139.442 32.6351 139.366 29.4565 140.492 28.3143C141.617 27.1722 144.036 27.5375 144.485 29.1122C144.485 29.1122 146.165 29.0702 149.259 26.8657C151.614 25.256 153.329 22.8709 154.105 20.1262V20.1262Z" fill="#B16668"/>
<path d="M151.308 27.9616C151.317 28.0645 151.306 28.1681 151.274 28.2665C151.242 28.3648 151.191 28.4558 151.124 28.534C151.057 28.6123 150.974 28.6763 150.882 28.7223C150.789 28.7682 150.689 28.7951 150.586 28.8014C150.428 28.8153 150.271 28.782 150.132 28.7058C149.994 28.6295 149.882 28.5138 149.81 28.3734C149.738 28.233 149.709 28.0742 149.728 27.9175C149.746 27.7608 149.811 27.6131 149.914 27.4934C150.017 27.3738 150.153 27.2875 150.305 27.2457C150.458 27.2038 150.619 27.2083 150.768 27.2586C150.918 27.3089 151.049 27.4026 151.145 27.5278C151.242 27.6531 151.298 27.8041 151.308 27.9616V27.9616Z" fill="#263238"/>
<path d="M152.114 33.3279L154.39 34.0543C154.349 34.2065 154.278 34.3488 154.181 34.4728C154.084 34.5968 153.962 34.6999 153.824 34.7759C153.686 34.852 153.534 34.8994 153.378 34.9154C153.221 34.9314 153.063 34.9156 152.912 34.8689C152.607 34.7633 152.354 34.5445 152.205 34.2577C152.057 33.9709 152.024 33.6381 152.114 33.3279V33.3279Z" fill="#9A4A4D"/>
<path d="M158.073 26.1897L156.527 25.1189C156.592 25.0148 156.678 24.9251 156.779 24.8552C156.88 24.7853 156.994 24.7367 157.114 24.7123C157.234 24.688 157.358 24.6884 157.478 24.7135C157.598 24.7386 157.712 24.788 157.812 24.8586C158.019 25.0038 158.162 25.2235 158.211 25.4717C158.259 25.7198 158.21 25.9771 158.073 26.1897Z" fill="#263238"/>
<path d="M157.526 27.8146C157.528 27.9644 157.485 28.1114 157.404 28.2372C157.322 28.363 157.206 28.4621 157.069 28.5222C156.931 28.5823 156.779 28.6006 156.632 28.575C156.484 28.5494 156.347 28.481 156.238 28.3782C156.129 28.2754 156.053 28.1429 156.018 27.997C155.984 27.8511 155.993 27.6984 156.045 27.5578C156.097 27.4172 156.189 27.2949 156.31 27.2062C156.431 27.1174 156.575 27.0662 156.724 27.0588C156.827 27.0554 156.929 27.0723 157.025 27.1086C157.12 27.1448 157.208 27.1996 157.283 27.2698C157.357 27.3401 157.417 27.4244 157.459 27.5179C157.501 27.6114 157.524 27.7122 157.526 27.8146V27.8146Z" fill="#263238"/>
<path d="M153.651 27.3779L153.773 31.9717L156.192 31.2242L153.651 27.3779Z" fill="#9A4A4D"/>
<path d="M151.69 37.9007C149.843 37.6613 146.051 36.2589 145.459 34.7556C145.696 35.5153 146.161 36.1837 146.79 36.6704C147.924 37.6445 151.69 38.7363 151.69 38.7363V37.9007Z" fill="#9A4A4D"/>
<path d="M182.532 56.2046L164.274 64.8924L159.252 86.6182L159.66 87.0507L177.014 78.3209L182.939 56.6371L182.532 56.2046Z" fill="#7E57C2"/>
<path opacity="0.35" d="M164.686 65.3288L159.66 87.0504L159.252 86.6179L164.274 64.8921L164.686 65.3288Z" fill="black"/>
<path opacity="0.25" d="M182.939 56.6367L164.686 65.3287L159.66 87.0503L177.014 78.3205L182.939 56.6367Z" fill="black"/>
<g opacity="0.2">
<path d="M174.323 73.903C174.491 74.3229 175.889 75.2719 177.918 75.1039L178.258 73.8442L174.323 73.903Z" fill="black"/>
</g>
<g opacity="0.1">
<path d="M177.438 61.0877L177.589 60.3612C177.673 59.9413 176.603 60.1681 175.196 60.8315L172.509 62.0912C171.102 62.7547 169.897 63.6197 169.813 64.0228L169.662 64.7492L177.438 61.0877Z" fill="black"/>
</g>
<path d="M178.547 57.6823C178.602 57.4303 178.165 57.4597 177.577 57.7495L176.515 58.2701C176.515 58.2701 176.83 56.6955 174.465 57.7243C172.101 58.753 171.589 60.5712 171.589 60.5712L170.451 61.1381C169.821 61.4488 169.254 61.9107 169.192 62.1626L169.057 62.6245L178.459 58.1526C178.459 58.1526 178.497 57.9342 178.547 57.6823Z" fill="#37474F"/>
<path d="M177.548 59.1896C176.687 59.5801 176.326 59.7733 176.2 60.3947C176.053 61.1002 175.995 61.6125 175.995 61.6125L171.829 63.5944C171.829 63.5944 172.031 62.6958 172.094 62.3347C172.157 61.9736 172.018 61.814 171.355 62.1331L171.094 61.4025L177.813 58.27L177.548 59.1896Z" fill="#37474F"/>
<path d="M177.682 61.1003C177.682 61.1003 177.749 60.7728 177.833 60.3739C177.917 59.975 176.846 60.1807 175.44 60.8442L172.748 62.1039C171.346 62.7673 170.14 63.6323 170.056 64.0355L169.905 64.7619L177.682 61.1003Z" fill="#37474F"/>
<path d="M180.907 64.0691C180.907 64.0691 180.26 66.4541 180.092 67.0546C179.924 67.6551 176.935 69.0365 175.436 69.2255C172.572 69.5824 172.249 70.2039 172.937 72.2362C173.571 74.109 175.436 74.8186 178.022 74.5121C179.232 74.3693 180.907 73.2944 181.566 71.4174C182.406 69.0239 181.953 66.4625 182.284 65.0643C182.616 63.666 181.638 63.2377 180.907 64.0691Z" fill="#B16668"/>
<path d="M16.4224 39.4965L17.2748 39.9878L38.5849 27.6846L37.7325 27.1934L16.4224 39.4965Z" fill="#455A64"/>
<path d="M37.7326 27.193L17.2749 39.0049V21.2723L37.7326 9.46045V27.193Z" fill="#7E57C2"/>
<g opacity="0.8">
<path d="M37.7326 27.193L17.2749 39.0049V21.2723L37.7326 9.46045V27.193Z" fill="white"/>
</g>
<path d="M39.4376 7.49146L16.4395 20.7772V41.4658L39.4544 28.1759L39.4376 7.49146ZM38.5978 27.6846L17.2793 39.9878V21.2727L38.5852 8.97371L38.5978 27.6846Z" fill="#37474F"/>
<path d="M38.5848 27.6844L37.7324 27.1931V9.46057L38.5848 8.96509V27.6844Z" fill="#263238"/>
<path d="M39.4376 7.49129L38.5852 7L15.5703 20.2857L16.4227 20.777L39.4376 7.49129Z" fill="#455A64"/>
<path d="M15.5703 20.2859L16.4227 20.7772V41.4658L15.5703 40.9745V20.2859Z" fill="#263238"/>
<path d="M33.7183 24.2118C34.5161 23.7499 35.1586 24.1236 35.1586 25.0516C35.1318 25.5508 34.9874 26.0366 34.7371 26.4694C34.4868 26.9021 34.1377 27.2695 33.7183 27.5416C32.9247 27.9993 32.2822 27.6298 32.2822 26.7018C32.3092 26.2031 32.4532 25.7178 32.7027 25.2852C32.9522 24.8526 33.3001 24.4849 33.7183 24.2118V24.2118Z" fill="#7E57C2"/>
<path opacity="0.2" d="M22.0913 20.462L32.9248 14.2054C33.2271 14.0291 33.4707 14.1718 33.4707 14.5162V14.5497C33.4607 14.7391 33.4061 14.9235 33.3112 15.0877C33.2163 15.2519 33.0839 15.3913 32.9248 15.4945L22.0913 21.7595C21.7932 21.9358 21.5454 21.7931 21.5454 21.4446V21.4068C21.557 21.2178 21.6123 21.034 21.707 20.8701C21.8018 20.7061 21.9333 20.5664 22.0913 20.462V20.462Z" fill="black"/>
<g opacity="0.2">
<path d="M20.3779 25.3918L34.6546 17.1617C34.9569 16.9853 35.2005 17.0651 35.2005 17.338C35.1787 17.5057 35.118 17.6659 35.0232 17.8059C34.9284 17.9459 34.8022 18.0618 34.6546 18.1443L20.3779 26.3828C20.0797 26.5591 19.8362 26.4793 19.8404 26.2022C19.8622 26.0351 19.922 25.8751 20.0151 25.7347C20.1083 25.5942 20.2324 25.4769 20.3779 25.3918V25.3918Z" fill="black"/>
<path d="M20.3779 27.3609L34.6546 19.1266C34.9569 18.9544 35.2005 19.0342 35.2005 19.3029C35.1784 19.471 35.1176 19.6317 35.0228 19.7723C34.9281 19.913 34.8021 20.0297 34.6546 20.1133L20.3779 28.3518C20.0797 28.524 19.8362 28.4442 19.8404 28.1713C19.8616 28.004 19.9211 27.8438 20.0143 27.7032C20.1075 27.5626 20.232 27.4455 20.3779 27.3609Z" fill="black"/>
<path d="M20.3779 29.326L34.6546 21.0917C34.9569 20.9195 35.2005 20.9993 35.2005 21.2723C35.1787 21.4399 35.118 21.6002 35.0232 21.7401C34.9284 21.8801 34.8022 21.996 34.6546 22.0785L20.3779 30.317C20.0797 30.4933 19.8362 30.4094 19.8404 30.1364C19.8622 29.9693 19.922 29.8093 20.0151 29.6689C20.1083 29.5284 20.2324 29.4111 20.3779 29.326V29.326Z" fill="black"/>
</g>
<path opacity="0.3" d="M31.1612 28.4192C31.0509 28.4775 30.9289 28.5105 30.8043 28.5158C30.4977 28.5158 30.5271 28.205 30.5355 27.9909C30.5355 27.8943 30.4054 27.7431 30.3382 27.8733C30.1534 28.205 29.9183 28.5158 29.7167 28.8391C29.595 29.0364 29.364 29.4857 29.0701 29.4227C28.9525 29.3976 28.9105 29.2674 28.9105 29.1036C29.0588 28.8316 29.1245 28.5222 29.0995 28.2134C29.0995 28.121 28.9315 28.0077 28.8853 28.1336C28.779 28.4018 28.7166 28.6854 28.7006 28.9735C28.5642 29.213 28.4098 29.4418 28.2387 29.6579C28.1379 29.7881 28.0539 29.935 27.9447 30.0778C27.9153 30.1072 27.865 30.1828 27.823 30.187C27.781 30.1912 27.7348 30.145 27.7222 30.0778C27.717 29.979 27.7327 29.8803 27.7684 29.7881V29.7881C27.7684 29.7881 27.7684 29.7881 27.7684 29.7629C27.7684 29.6663 27.6424 29.5235 27.592 29.6453C27.4038 30.1594 27.1187 30.6326 26.7522 31.0394L26.6976 31.0856C26.6976 31.0268 26.6976 30.9722 26.6976 30.9134C26.6923 30.7822 26.6697 30.6523 26.6304 30.5271C26.6052 30.4641 26.4961 30.3675 26.4373 30.4515C26.1766 30.9259 25.8578 31.366 25.4883 31.7616C25.4261 31.8127 25.3601 31.859 25.2909 31.9002C25.2238 31.8666 25.3245 31.5181 25.3413 31.4803C25.3791 31.3249 25.4295 31.1737 25.4799 31.0226C25.5322 30.9014 25.5702 30.7746 25.5933 30.6447C25.5933 30.5271 25.4127 30.3465 25.3749 30.5061C25.3749 30.5691 25.3035 30.7244 25.2448 30.926C25.0011 31.3768 24.7246 31.809 24.4175 32.2193C24.1419 32.6636 23.7594 33.0317 23.3048 33.2901C23.1788 33.3572 22.9395 33.458 22.8009 33.3572C22.6624 33.2565 22.6749 33.0843 22.6707 32.9373C22.6652 32.6035 22.7106 32.2708 22.8051 31.9506C23.2525 31.7138 23.6674 31.4202 24.0396 31.0772C24.4049 30.7851 24.7211 30.4363 24.976 30.0442C25.102 29.8133 25.1776 29.4395 24.871 29.3094C24.6569 29.217 24.384 29.3682 24.2034 29.4689C23.9555 29.6158 23.7305 29.7983 23.5358 30.0106C23.1409 30.4592 22.8537 30.992 22.6959 31.5685C22.6708 31.6566 22.633 31.7742 22.5994 31.9044C22.1157 32.1523 21.5672 32.2447 21.0289 32.1689C20.9995 32.1689 20.9869 32.2319 21.0289 32.2361C21.5441 32.3466 22.0809 32.2953 22.5658 32.0891C22.4272 32.6854 22.3516 33.4748 22.9059 33.6302C23.4602 33.7855 24.132 33.0885 24.4301 32.6854C24.6585 32.3842 24.8581 32.0623 25.0264 31.7238C25.0418 31.6991 25.0586 31.6752 25.0768 31.6524C25.0768 31.9296 25.1314 32.1311 25.4043 32.0723C25.6773 32.0136 25.925 31.6524 26.0762 31.4299C26.2273 31.2073 26.3491 31.01 26.4961 30.8126C26.5213 31.0646 26.5633 31.3459 26.8026 31.2997C27.0419 31.2535 27.2225 30.8378 27.3485 30.6699C27.4744 30.5019 27.5374 30.3759 27.6172 30.2248C27.634 30.2523 27.6522 30.279 27.6718 30.3045C27.8692 30.5145 28.0917 30.3045 28.2345 30.1198C28.415 29.8846 28.6166 29.6327 28.7887 29.364C28.8297 29.4794 28.914 29.5743 29.0239 29.6285C29.3304 29.7713 29.616 29.5193 29.7923 29.2968C30.0066 29.0043 30.1975 28.6954 30.3634 28.373C30.3759 28.4339 30.401 28.4916 30.4372 28.5422C30.4734 28.5928 30.5197 28.6353 30.5733 28.6669C30.6863 28.7239 30.8124 28.7497 30.9386 28.7416C31.0649 28.7335 31.1867 28.6917 31.2914 28.6207C31.3502 28.5745 31.262 28.3688 31.1612 28.4192ZM24.4889 29.6117C24.6275 29.5403 24.9088 29.4185 24.9382 29.6579C24.919 29.8145 24.8515 29.9613 24.7451 30.0778C24.5022 30.4049 24.2202 30.7011 23.9053 30.9596C23.5845 31.2553 23.2373 31.5209 22.8681 31.7532C22.9764 31.304 23.1763 30.8819 23.4552 30.5134C23.7341 30.1449 24.086 29.838 24.4889 29.6117Z" fill="black"/>
<path d="M50.0146 39.4965L50.8671 39.9878L72.1772 27.6846L71.3247 27.1934L50.0146 39.4965Z" fill="#455A64"/>
<path d="M71.3249 27.193L50.8672 39.0049V21.2723L71.3249 9.46045V27.193Z" fill="#7E57C2"/>
<g opacity="0.8">
<path d="M71.3249 27.193L50.8672 39.0049V21.2723L71.3249 9.46045V27.193Z" fill="white"/>
</g>
<path d="M73.0299 7.49146L50.0317 20.7772V41.4658L73.0466 28.1759L73.0299 7.49146ZM72.19 27.6846L50.8715 39.9878V21.2727L72.1774 8.97371L72.19 27.6846Z" fill="#37474F"/>
<path d="M72.1771 27.6844L71.3247 27.1931V9.46057L72.1771 8.96509V27.6844Z" fill="#263238"/>
<path d="M73.0299 7.49129L72.1775 7L49.1626 20.2857L50.015 20.777L73.0299 7.49129Z" fill="#455A64"/>
<path d="M49.1626 20.2859L50.015 20.7772V41.4658L49.1626 40.9745V20.2859Z" fill="#263238"/>
<path d="M67.3143 24.2118C68.1079 23.7499 68.7504 24.1236 68.7504 25.0516C68.7234 25.5503 68.5794 26.0356 68.3299 26.4682C68.0804 26.9008 67.7324 27.2686 67.3143 27.5416C66.5165 27.9993 65.874 27.6298 65.874 26.7018C65.9008 26.2026 66.0452 25.7168 66.2955 25.2841C66.5458 24.8513 66.8949 24.4839 67.3143 24.2118V24.2118Z" fill="#7E57C2"/>
<path opacity="0.2" d="M55.6833 20.462L66.521 14.2054C66.8191 14.0291 67.0627 14.1718 67.0627 14.5162V14.5497C67.0529 14.7387 66.9987 14.9227 66.9046 15.0868C66.8105 15.251 66.6791 15.3906 66.521 15.4945L55.6833 21.7595C55.3851 21.9358 55.1416 21.7931 55.1416 21.4446V21.4068C55.1524 21.2181 55.2069 21.0344 55.3009 20.8705C55.395 20.7065 55.5259 20.5666 55.6833 20.462V20.462Z" fill="black"/>
<g opacity="0.2">
<path d="M53.9701 25.3918L68.2469 17.1617C68.5492 16.9853 68.7927 17.0651 68.7927 17.338C68.771 17.5057 68.7103 17.6659 68.6155 17.8059C68.5207 17.9459 68.3944 18.0618 68.2469 18.1443L53.9701 26.3828C53.672 26.5591 53.4285 26.4793 53.4327 26.2022C53.4545 26.0351 53.5142 25.8751 53.6074 25.7347C53.7006 25.5942 53.8247 25.4769 53.9701 25.3918V25.3918Z" fill="black"/>
<path d="M53.9701 27.3609L68.2469 19.1266C68.5492 18.9544 68.7927 19.0342 68.7927 19.3029C68.7706 19.471 68.7098 19.6317 68.6151 19.7723C68.5204 19.913 68.3943 20.0297 68.2469 20.1133L53.9701 28.3518C53.672 28.524 53.4285 28.4442 53.4327 28.1713C53.4539 28.004 53.5134 27.8438 53.6066 27.7032C53.6998 27.5626 53.8242 27.4455 53.9701 27.3609Z" fill="black"/>
<path d="M53.9701 29.326L68.2469 21.0917C68.5492 20.9195 68.7927 20.9993 68.7927 21.2723C68.771 21.4399 68.7103 21.6002 68.6155 21.7401C68.5207 21.8801 68.3944 21.996 68.2469 22.0785L53.9701 30.317C53.672 30.4933 53.4285 30.4094 53.4327 30.1364C53.4545 29.9693 53.5142 29.8093 53.6074 29.6689C53.7006 29.5284 53.8247 29.4111 53.9701 29.326V29.326Z" fill="black"/>
</g>
<path opacity="0.3" d="M64.7534 28.4192C64.6434 28.4784 64.5213 28.5115 64.3965 28.5158C64.0941 28.5158 64.1193 28.205 64.1277 27.9909C64.1277 27.8943 63.9976 27.7431 63.9304 27.8733C63.7456 28.205 63.5105 28.5158 63.3089 28.8391C63.1913 29.0364 62.9562 29.4857 62.6665 29.4227C62.5447 29.3976 62.5027 29.2674 62.5027 29.1036C62.651 28.8316 62.7167 28.5222 62.6917 28.2134C62.6917 28.121 62.5279 28.0077 62.4775 28.1336C62.3712 28.4018 62.3088 28.6854 62.2928 28.9735C62.1564 29.213 62.002 29.4418 61.8309 29.6579C61.7343 29.7881 61.6461 29.935 61.5369 30.0778C61.5117 30.1072 61.4571 30.1828 61.4152 30.187C61.3732 30.1912 61.327 30.145 61.3144 30.0778C61.3092 29.979 61.3249 29.8803 61.3606 29.7881V29.7881C61.3624 29.7798 61.3624 29.7712 61.3606 29.7629V29.7629C61.3606 29.6663 61.2346 29.5235 61.1842 29.6453C60.9959 30.1594 60.7109 30.6326 60.3444 31.0394L60.2898 31.0856C60.2898 31.0268 60.2898 30.9722 60.2898 30.9134C60.2845 30.7822 60.2619 30.6523 60.2226 30.5271C60.1974 30.4641 60.0883 30.3675 60.0295 30.4515C59.7702 30.9268 59.4513 31.3671 59.0805 31.7616C59.019 31.8137 58.953 31.86 58.8831 31.9002C58.8202 31.8666 58.9209 31.5181 58.9335 31.4803C58.9713 31.3249 59.0217 31.1737 59.0721 31.0226C59.1244 30.9014 59.1624 30.7746 59.1855 30.6447C59.1855 30.5271 59.0049 30.3465 58.9671 30.5061C58.9671 30.5691 58.8957 30.7244 58.8369 30.926C58.5947 31.3776 58.3182 31.81 58.0097 32.2193C57.7341 32.6636 57.3516 33.0317 56.897 33.2901C56.771 33.3572 56.5317 33.458 56.3931 33.3572C56.2545 33.2565 56.2713 33.0843 56.2629 32.9373C56.2616 32.6038 56.3068 32.2716 56.3973 31.9506C56.8447 31.7138 57.2596 31.4202 57.6318 31.0772C57.9982 30.7862 58.3145 30.4373 58.5682 30.0442C58.6942 29.8133 58.7698 29.4395 58.4632 29.3094C58.2491 29.217 57.9761 29.3682 57.7956 29.4689C57.5444 29.6096 57.3152 29.7865 57.1153 29.9938C56.7205 30.4424 56.4333 30.9752 56.2755 31.5517C56.2503 31.6398 56.2126 31.7574 56.179 31.8876C55.6953 32.1355 55.1468 32.2279 54.6085 32.1521C54.5791 32.1521 54.5665 32.2151 54.6085 32.2193C55.1237 32.3298 55.6605 32.2785 56.1454 32.0723C56.0068 32.6686 55.9312 33.458 56.4855 33.6134C57.0398 33.7687 57.7116 33.0717 58.0097 32.6686C58.2381 32.3674 58.4377 32.0455 58.606 31.707C58.6214 31.6823 58.6382 31.6584 58.6564 31.6356C58.6564 31.9128 58.711 32.1143 58.9839 32.0555C59.2569 31.9968 59.5046 31.6356 59.66 31.4131C59.8153 31.1905 59.9287 30.9932 60.0799 30.7958C60.1051 31.0478 60.1512 31.3291 60.3864 31.2829C60.6215 31.2367 60.8063 30.821 60.9323 30.6531C61.0582 30.4851 61.1212 30.3591 61.201 30.208C61.2178 30.2355 61.236 30.2622 61.2556 30.2877C61.4529 30.4977 61.6755 30.2877 61.8183 30.103C61.9988 29.8678 62.2004 29.6159 62.3725 29.3472C62.4135 29.4626 62.4978 29.5575 62.6077 29.6117C62.9142 29.7545 63.1997 29.5025 63.3761 29.28C63.5904 28.9875 63.7813 28.6786 63.9472 28.3562C63.9597 28.4171 63.9848 28.4748 64.021 28.5254C64.0572 28.576 64.1035 28.6185 64.1571 28.6501C64.2701 28.7071 64.3962 28.7329 64.5224 28.7248C64.6487 28.7167 64.7705 28.6749 64.8752 28.6039C64.9465 28.5745 64.8542 28.3688 64.7534 28.4192ZM58.0811 29.6117C58.2239 29.5403 58.501 29.4185 58.5304 29.6579C58.5108 29.8136 58.445 29.9599 58.3415 30.0778C58.0972 30.4038 57.8153 30.6997 57.5017 30.9596C57.1809 31.2553 56.8337 31.5209 56.4645 31.7532C56.5723 31.3043 56.7716 30.8825 57.0497 30.514C57.3279 30.1456 57.679 29.8384 58.0811 29.6117V29.6117Z" fill="black"/>
</svg>
