<svg width="200" height="200" viewBox="0 0 200 200" fill="none" xmlns="http://www.w3.org/2000/svg">
<path d="M30.0747 102.114C-8.69228 124.507 -8.69228 160.812 30.0789 183.205C68.8502 205.598 131.749 205.598 170.511 183.205C209.274 160.812 209.295 124.507 170.511 102.114C131.728 79.7209 68.8586 79.7252 30.0747 102.114Z" fill="#FAFAFA"/>
<path d="M65.0811 4.44556L66.4558 5.2154V37.2526L65.0811 36.487V4.44556Z" fill="#FAFAFA"/>
<path d="M65.0812 36.4871V6.01074L9.54688 38.0353L9.55957 68.5074L65.0812 36.4871Z" fill="white"/>
<path d="M69.0064 38.7289V0.795166L6.99609 36.5632V74.4926L69.0064 38.7289ZM9.54672 70.0724V38.0352L66.4557 5.21541V37.2526L9.54672 70.0724Z" fill="#F0F0F0"/>
<path d="M66.4559 37.2527L65.0812 36.4871L9.55957 68.5074L9.54688 70.0724L66.4559 37.2527Z" fill="#E0E0E0"/>
<path d="M6.99614 74.4926L5.62988 73.6974V35.7637L6.99614 36.5631V74.4926Z" fill="#FAFAFA"/>
<path d="M5.62988 35.7638L6.99614 36.5632L69.0064 0.795221L67.6401 0L5.62988 35.7638Z" fill="#E0E0E0"/>
<path d="M62.7258 35.5613V9.65747L12.6016 38.5561V64.4642L62.7258 35.5613Z" fill="#F0F0F0"/>
<path d="M62.7258 35.5613V9.65747L12.6016 38.5561V64.4642L62.7258 35.5613Z" fill="#F0F0F0"/>
<path d="M47.1426 18.6581C47.7403 19.5462 48.2678 20.4796 48.7203 21.4498C50.3468 24.8242 51.4943 28.409 52.1296 32.1007C52.6161 34.9516 52.8487 37.9506 54.215 40.4801L62.7467 35.5607V32.0541C61.2119 31.5684 59.8124 30.7296 58.6606 29.605C55.5135 26.4284 55.1794 21.5006 53.3986 17.4018C53.1246 16.7798 52.8153 16.1739 52.4722 15.5872L47.1426 18.6581Z" fill="#FAFAFA"/>
<path d="M36.1951 24.9353C37.4176 30.0111 38.9234 35.087 37.5275 40.0444C36.3982 44.029 33.5176 47.2649 30.5017 50.1031C27.4858 52.9414 24.2076 55.602 21.9023 59.024C21.8769 59.0578 21.86 59.0959 21.8389 59.1297L44.6803 45.9748C44.9045 45.5222 45.1287 45.0696 45.3317 44.6043C47.5482 39.5284 48.3518 33.4458 45.8308 28.5011C44.6465 26.1789 42.7684 24.1485 41.4867 21.9109L36.1951 24.9353Z" fill="#FAFAFA"/>
<path d="M23.2684 32.4009C22.2532 37.4303 18.5647 41.9393 13.7004 43.6609C13.3366 43.792 12.9728 43.902 12.6006 44.0035V53.9691C13.0743 53.6561 13.5523 53.3473 14.0345 53.0513C16.8432 51.3255 19.7872 49.7562 22.2067 47.5143C24.2284 45.6173 25.8189 43.308 26.8705 40.7428C27.9221 38.1777 28.4103 35.4165 28.302 32.6462C28.2536 31.6591 28.1263 30.6775 27.9213 29.7107L23.2684 32.4009Z" fill="#FAFAFA"/>
<path d="M141.211 104.385C129.164 111.339 129.164 122.612 141.211 129.57C153.258 136.528 172.787 136.524 184.834 129.57C196.88 122.616 196.88 111.339 184.834 104.385C172.787 97.4312 153.258 97.4058 141.211 104.385Z" fill="#E0E0E0"/>
<path d="M81.5141 185.236L23.6745 151.82C22.8624 151.35 22.8624 150.589 23.6745 150.128L94.0346 109.461C94.4893 109.23 94.9922 109.109 95.5024 109.109C96.0125 109.109 96.5155 109.23 96.9701 109.461L154.814 142.878C155.626 143.347 155.626 144.104 154.814 144.57L84.4539 185.236C83.9985 185.467 83.4948 185.588 82.984 185.588C82.4732 185.588 81.9695 185.467 81.5141 185.236Z" fill="#E0E0E0"/>
<path d="M38.34 189.508L59.5699 177.241C60.2044 176.873 60.2044 176.276 59.5699 175.908L26.4794 156.836C26.123 156.655 25.7288 156.56 25.3289 156.56C24.929 156.56 24.5348 156.655 24.1784 156.836L2.94852 169.103C2.31404 169.471 2.31404 170.067 2.94852 170.435L36.0348 189.537C36.3941 189.715 36.7903 189.804 37.191 189.799C37.5916 189.794 37.9854 189.694 38.34 189.508Z" fill="#E0E0E0"/>
<path d="M147.915 65.3004C147.928 65.1489 147.982 65.0038 148.07 64.8802C148.159 64.7567 148.279 64.6593 148.418 64.5983C148.795 64.4063 149.212 64.3062 149.634 64.3062C150.057 64.3062 150.474 64.4063 150.851 64.5983C150.991 64.6587 151.112 64.7558 151.201 64.8794C151.29 65.003 151.345 65.1485 151.358 65.3004L138.427 118.982C138.415 119.087 138.375 119.186 138.313 119.271C138.251 119.357 138.168 119.424 138.072 119.468C137.805 119.604 137.51 119.675 137.211 119.675C136.912 119.675 136.617 119.604 136.35 119.468C136.254 119.425 136.171 119.358 136.108 119.272C136.046 119.187 136.007 119.087 135.995 118.982L147.915 65.3004Z" fill="#455A64"/>
<path d="M177.711 65.3004C177.698 65.149 177.644 65.0038 177.555 64.8803C177.467 64.7567 177.347 64.6593 177.207 64.5983C176.83 64.4066 176.412 64.3066 175.989 64.3066C175.566 64.3066 175.148 64.4066 174.771 64.5983C174.632 64.6593 174.511 64.7567 174.423 64.8803C174.334 65.0038 174.281 65.149 174.268 65.3004L187.194 118.982C187.206 119.087 187.245 119.187 187.307 119.272C187.37 119.358 187.453 119.425 187.549 119.468C187.816 119.604 188.111 119.675 188.41 119.675C188.709 119.675 189.004 119.604 189.271 119.468C189.366 119.424 189.449 119.356 189.51 119.271C189.572 119.186 189.61 119.086 189.622 118.982V118.982L177.711 65.3004Z" fill="#455A64"/>
<path d="M164.733 67.0724C164.72 66.9209 164.666 66.7758 164.578 66.6522C164.489 66.5286 164.369 66.4312 164.23 66.3702C163.853 66.1782 163.436 66.0781 163.014 66.0781C162.591 66.0781 162.174 66.1782 161.798 66.3702C161.658 66.4306 161.536 66.5278 161.447 66.6514C161.358 66.775 161.303 66.9205 161.29 67.0724L161.798 127.615C161.81 127.72 161.849 127.82 161.911 127.905C161.973 127.99 162.057 128.058 162.153 128.101C162.42 128.237 162.715 128.308 163.014 128.308C163.313 128.308 163.608 128.237 163.875 128.101C163.97 128.057 164.053 127.99 164.116 127.904C164.178 127.819 164.217 127.72 164.23 127.615V127.615L164.733 67.0724Z" fill="#455A64"/>
<path d="M193.869 74.3523H193.839C193.839 69.7925 190.857 65.2369 184.834 61.7599C172.787 54.8059 153.258 54.8059 141.211 61.7599C135.187 65.2369 132.201 69.7967 132.205 74.3523H132.163V76.8014C132.235 81.2978 135.255 85.7815 141.198 89.2161C153.245 96.1701 172.774 96.1701 184.821 89.2161C190.764 85.7815 193.784 81.2978 193.856 76.8014L193.869 74.3523Z" fill="#7E57C2"/>
<path d="M141.211 61.7472C129.164 68.7011 129.164 79.978 141.211 86.932C153.258 93.8859 172.787 93.8859 184.834 86.932C196.88 79.978 196.88 68.7011 184.834 61.7472C172.787 54.7933 153.258 54.7933 141.211 61.7472Z" fill="#7E57C2"/>
<path opacity="0.45" d="M141.211 61.7472C129.164 68.7011 129.164 79.978 141.211 86.932C153.258 93.8859 172.787 93.8859 184.834 86.932C196.88 79.978 196.88 68.7011 184.834 61.7472C172.787 54.7933 153.258 54.7933 141.211 61.7472Z" fill="white"/>
<g opacity="0.1">
<path d="M184.406 67.8722C187.735 69.7968 187.735 72.9184 184.406 74.843C181.077 76.7676 175.671 76.7634 172.338 74.843C169.005 72.9227 169.005 69.7968 172.338 67.8722C175.671 65.9476 181.072 65.9476 184.406 67.8722Z" fill="black"/>
</g>
<path d="M173.061 71.7849C170.155 68.824 168.451 61.4301 171.285 59.0952H185.688C188.522 61.447 186.817 68.824 183.915 71.7849L183.835 71.8653L183.738 71.9626C183.653 72.0429 183.568 72.1191 183.475 72.1952L183.403 72.2502C183.332 72.3052 183.264 72.3644 183.184 72.4152C183.064 72.5024 182.94 72.5829 182.811 72.6563C180.421 74.0352 176.551 74.0352 174.165 72.6563C174.038 72.5844 173.916 72.504 173.789 72.4152C173.662 72.3263 173.654 72.3136 173.586 72.2587L173.501 72.1952C173.408 72.1191 173.324 72.0429 173.248 71.9668L173.133 71.8568L173.061 71.7849Z" fill="#EBEBEB"/>
<path d="M184.44 58.1352C187.727 60.0302 187.727 63.1096 184.44 65.0046C181.154 66.8996 175.824 66.9038 172.537 65.0046C169.251 63.1054 169.251 60.0302 172.537 58.1352C175.824 56.2402 181.154 56.236 184.44 58.1352Z" fill="#FAFAFA"/>
<path d="M182.109 59.4803C184.105 60.6351 184.105 62.5047 182.109 63.6595C180.112 64.8142 176.864 64.8142 174.867 63.6595C172.871 62.5047 172.866 60.6351 174.867 59.4803C176.868 58.3256 180.108 58.3256 182.109 59.4803Z" fill="#EBEBEB"/>
<path d="M174.885 61.4642C176.881 60.3095 180.126 60.3095 182.126 61.4642C182.61 61.727 183.021 62.1047 183.324 62.564C183.019 63.0209 182.608 63.3968 182.126 63.6595C180.126 64.8143 176.881 64.8143 174.885 63.6595C174.401 63.3974 173.989 63.0214 173.684 62.564C173.987 62.1037 174.4 61.7258 174.885 61.4642V61.4642Z" fill="#E0E0E0"/>
<path d="M181.653 62.5637C182.678 61.5238 183.56 60.3516 184.275 59.0783C185.485 56.9634 185.705 54.0743 185.083 53.7233C184.461 53.3722 181.911 56.2274 181.911 56.2274C182.145 55.0255 182.234 53.8 182.177 52.577C182.071 50.6693 181.606 48.9392 181.061 48.5882C180.515 48.2371 179.297 50.6439 178.772 52.3951C178.248 54.1462 177.926 55.5675 177.926 55.5675C177.717 54.2086 177.403 52.868 176.987 51.5576C176.353 49.7514 175.777 49.3411 175.333 49.523C174.889 49.7049 174.589 50.5424 174.458 52.9534C174.412 54.1023 174.449 55.2529 174.568 56.3966C174.568 56.3966 173.671 55.411 172.673 54.455C171.581 53.4018 171.112 53.258 170.799 53.4568C170.486 53.6556 170.401 55.2926 172.093 58.3592C172.935 59.9254 174.014 61.3522 175.291 62.5891C175.291 62.5891 177.66 64.0738 181.653 62.5637Z" fill="#7E57C2"/>
<path opacity="0.3" d="M181.653 62.5637C182.678 61.5238 183.56 60.3516 184.275 59.0783C185.485 56.9634 185.705 54.0743 185.083 53.7233C184.461 53.3722 181.911 56.2274 181.911 56.2274C182.145 55.0255 182.234 53.8 182.177 52.577C182.071 50.6693 181.606 48.9392 181.061 48.5882C180.515 48.2371 179.297 50.6439 178.772 52.3951C178.248 54.1462 177.926 55.5675 177.926 55.5675C177.717 54.2086 177.403 52.868 176.987 51.5576C176.353 49.7514 175.777 49.3411 175.333 49.523C174.889 49.7049 174.589 50.5424 174.458 52.9534C174.412 54.1023 174.449 55.2529 174.568 56.3966C174.568 56.3966 173.671 55.411 172.673 54.455C171.581 53.4018 171.112 53.258 170.799 53.4568C170.486 53.6556 170.401 55.2926 172.093 58.3592C172.935 59.9254 174.014 61.3522 175.291 62.5891C175.291 62.5891 177.66 64.0738 181.653 62.5637Z" fill="black"/>
<path d="M159.438 69.3658C159.438 68.1687 158.655 66.9716 157.073 66.058C153.909 64.2307 148.778 64.2307 145.615 66.058C144.033 66.9716 143.25 68.1729 143.25 69.3658V70.1229C143.271 71.3073 144.062 72.4832 145.623 73.3842C148.787 75.2115 153.918 75.2115 157.082 73.3842C158.643 72.4832 159.434 71.3073 159.455 70.1229L159.438 69.3658Z" fill="#37474F"/>
<path d="M145.605 66.058C142.441 67.8853 142.441 70.8462 145.605 72.6735C148.769 74.5009 153.9 74.5009 157.064 72.6735C160.228 70.8462 160.228 67.8853 157.064 66.058C153.9 64.2307 148.769 64.2307 145.605 66.058Z" fill="#455A64"/>
<path d="M150.352 46.0376H152.378V68.253C152.382 68.3505 152.356 68.4469 152.304 68.5293C152.252 68.6117 152.176 68.6762 152.086 68.7141C151.864 68.8287 151.618 68.8885 151.369 68.8885C151.119 68.8885 150.873 68.8287 150.652 68.7141C150.562 68.6765 150.486 68.612 150.435 68.5294C150.383 68.4468 150.358 68.3502 150.364 68.253V68.253L150.352 46.0376Z" fill="#37474F"/>
<path d="M138.22 41.4523L144.408 25.6748H158.316L164.5 41.4523C165.38 43.9183 164.17 46.5832 160.854 48.4993C155.613 51.5237 147.115 51.5237 141.875 48.4993C138.55 46.5832 137.34 43.9183 138.22 41.4523Z" fill="#7E57C2"/>
<g opacity="0.4">
<path d="M138.221 41.4521L144.409 25.6746H158.317L164.501 41.4521C165.381 43.9181 164.171 46.5829 160.855 48.4991C155.614 51.5234 147.116 51.5234 141.876 48.4991C138.551 46.5829 137.341 43.9181 138.221 41.4521Z" fill="white"/>
</g>
<path opacity="0.2" d="M145.064 44.4471C142.548 40.3568 145.771 32.6034 148.139 26.1401V25.6748H144.404L138.216 41.4523C137.336 43.9183 138.546 46.5832 141.862 48.4993C147.103 51.5237 155.601 51.5237 160.842 48.4993C156.109 50.3562 147.585 48.5501 145.064 44.4471Z" fill="#7E57C2"/>
<path d="M156.387 29.4523C153.608 31.0596 149.104 31.0596 146.325 29.4523C143.545 27.8449 143.545 25.2477 146.325 23.6446C149.104 22.0415 153.608 22.0372 156.387 23.6446C159.166 25.252 159.166 27.8491 156.387 29.4523Z" fill="#7E57C2"/>
<g opacity="0.6">
<path d="M156.388 29.452C153.609 31.0594 149.105 31.0594 146.325 29.452C143.546 27.8446 143.546 25.2475 146.325 23.6444C149.105 22.0412 153.609 22.037 156.388 23.6444C159.167 25.2517 159.167 27.8489 156.388 29.452Z" fill="white"/>
</g>
<path d="M151.359 29.8329C152.966 29.8698 154.555 29.4925 155.974 28.7374C157.052 28.1156 157.666 27.3373 157.666 26.5505C157.666 25.7638 157.069 24.9812 155.974 24.3594C154.541 23.6389 152.96 23.2637 151.357 23.2637C149.753 23.2637 148.172 23.6389 146.74 24.3594C145.661 24.9812 145.048 25.7595 145.048 26.5505C145.048 27.3415 145.644 28.1156 146.74 28.7374C148.16 29.493 149.751 29.8703 151.359 29.8329V29.8329Z" fill="#7E57C2"/>
<path d="M83.4648 181.808L84.4419 167.811L91.2225 163.898L87.3437 179.57L83.4648 181.808Z" fill="#B16668"/>
<path d="M83.4654 181.808L79.5908 179.57L79.6627 165.053L84.4425 167.811L83.4654 181.808Z" fill="#9A4A4D"/>
<path d="M35.959 154.385L36.9361 140.388L43.7124 136.476L39.8378 152.147L35.959 154.385Z" fill="#B16668"/>
<path d="M35.9589 154.385L32.0801 152.148L32.1562 137.631L36.936 140.389L35.9589 154.385Z" fill="#9A4A4D"/>
<path d="M148.97 143.992L147.992 131.125L141.212 135.038L145.091 146.234L148.97 143.992Z" fill="#B16668"/>
<path d="M145.09 146.234L141.211 143.992L136.432 132.28L141.211 135.042L145.09 146.234Z" fill="#9A4A4D"/>
<path d="M83.4648 167.248L149.599 129.069V133.549L83.4648 171.724V167.248Z" fill="#B16668"/>
<path d="M29.1738 140.38L83.4645 171.724V167.248L29.1738 135.905V140.38Z" fill="#9A4A4D"/>
<path d="M83.4645 167.248L149.599 129.069L95.3082 97.7256L29.1738 135.905L83.4645 167.248Z" fill="#9A4A4D"/>
<path d="M149.671 101.503V125.157C149.671 127.564 147.979 130.524 145.864 131.722L144.769 132.36L144.714 132.386C143.247 133.107 141.604 133.39 139.981 133.202L92.1828 158.615C92.0771 160.963 90.4401 163.738 88.4351 164.918H88.4013L87.31 165.552C87.2181 165.612 87.1203 165.661 87.0181 165.7C86.9682 165.731 86.9159 165.758 86.8616 165.781C86.8616 165.781 86.8278 165.781 86.8193 165.781C84.9504 166.557 82.8679 166.653 80.9355 166.051C80.7118 165.984 80.4927 165.902 80.2799 165.806L80.1742 165.764C80.0176 165.692 79.8696 165.616 79.7258 165.535L30.4094 137.098C28.3199 135.888 26.6025 132.94 26.6025 130.533V79.292C26.6025 76.8852 28.2945 73.9327 30.4094 72.7272L88.9808 38.888C91.0957 37.6783 94.4797 37.6783 96.565 38.888L99.6528 40.6646C101.738 41.8743 103.709 44.8056 104.022 47.1955L106.983 72.4903L145.873 94.9468C147.962 96.1354 149.671 99.0963 149.671 101.503Z" fill="#37474F"/>
<path d="M99.6441 40.6603L96.5605 38.8795C94.4455 37.6697 91.0616 37.6697 88.9763 38.8795L30.4049 72.7186C30.185 72.8455 29.9439 73.0147 30.0158 72.964C28.1902 74.34 26.9829 76.382 26.6572 78.6447C26.9364 76.7074 28.5099 76.0095 30.4007 77.0966L33.4927 78.8774C35.6077 80.0871 38.9916 80.0871 41.0769 78.8774L99.6441 45.0382C101.738 43.8285 101.738 41.87 99.6441 40.6603Z" fill="#455A64"/>
<path d="M149.671 101.503V125.157C149.671 127.564 147.979 130.525 145.864 131.722L144.769 132.36L144.714 132.386C143.346 133.086 141.806 133.38 140.277 133.232C139.195 133.171 138.14 132.875 137.185 132.365L102.076 112.095C99.9911 110.898 98.2695 107.937 98.2695 105.53V81.8723C98.2695 79.4655 99.9615 76.5046 102.076 75.3075L106.954 72.4819L145.843 94.9384C147.962 96.1355 149.671 99.0964 149.671 101.503Z" fill="#263238"/>
<path d="M106.992 72.4819L102.131 75.3033C100.046 76.5088 100.046 78.4799 102.131 79.6812L137.24 99.9424C139.325 101.148 141.046 104.1 141.046 106.507V130.186C141.046 132.593 142.738 133.57 144.853 132.373L145.945 131.739C148.03 130.537 149.752 127.581 149.752 125.174V101.499C149.752 99.0922 148.06 96.1355 145.945 94.9342L106.992 72.4819Z" fill="#455A64"/>
<path d="M140.996 106.498V130.186C140.996 132.593 142.688 133.57 144.803 132.373L145.894 131.738C147.979 130.537 149.701 127.58 149.701 125.173V101.499C149.653 100.179 149.271 98.8939 148.588 97.7637L139.917 102.776C140.585 103.906 140.956 105.186 140.996 106.498Z" fill="#37474F"/>
<path d="M139.418 133.227C139.053 133.982 138.588 134.683 138.035 135.312C137.227 136.213 135.497 137.203 134.465 137.808C121.132 145.511 110.105 151.898 96.768 159.596C96.1787 159.897 95.5263 160.054 94.8645 160.054C94.2027 160.054 93.5504 159.897 92.9611 159.596L80.6521 152.477L55.9876 138.244C53.898 137.034 52.1807 134.217 52.1807 131.95C52.1807 129.682 53.8726 126.874 55.9876 125.651L69.9843 117.572L80.6563 111.418L93.6717 103.88C94.848 103.288 96.1467 102.979 97.4638 102.979C98.7809 102.979 100.08 103.288 101.256 103.88L136.343 124.145C138.458 125.355 140.15 126.29 140.15 129.069C140.116 129.953 139.854 132.301 139.418 133.227Z" fill="#263238"/>
<path d="M96.772 151.386L138.225 127.424C139.274 126.823 140.12 127.309 140.12 128.519V132.356C140.085 133.013 139.895 133.653 139.565 134.224C139.236 134.794 138.777 135.279 138.225 135.638L96.772 159.596C95.7229 160.201 94.8727 159.71 94.877 158.505V154.668C94.9135 154.011 95.104 153.372 95.4332 152.801C95.7624 152.231 96.2209 151.746 96.772 151.386V151.386Z" fill="#37474F"/>
<path d="M93.2233 90.4928L56.0003 112.014C53.9065 113.224 52.1934 116.164 52.1934 118.579V121.117C52.1934 123.537 53.8853 126.476 56.0003 127.682L91.1084 147.943C93.2233 149.153 96.6073 149.153 98.6926 147.943L135.916 126.421C138.009 125.216 139.723 122.276 139.723 119.857V117.319C139.723 114.899 138.031 111.959 135.916 110.754L100.808 90.4928C98.7095 89.283 95.3171 89.283 93.2233 90.4928Z" fill="#37474F"/>
<path d="M94.8772 137.554V148.865C93.5512 148.894 92.24 148.581 91.0703 147.956L55.9622 127.699C53.8726 126.489 52.1553 123.549 52.1553 121.13V118.592C52.1553 116.325 53.6527 113.6 55.5603 112.268C53.8684 113.486 53.9953 115.271 55.9453 116.401L91.0534 136.662C92.2308 137.281 93.5473 137.589 94.8772 137.554V137.554Z" fill="#263238"/>
<path d="M98.6676 136.654L135.891 115.132C137.984 113.922 137.984 111.959 135.891 110.754L100.783 90.4928C98.6676 89.283 95.2837 89.283 93.2026 90.4928L55.9795 112.014C53.8857 113.224 53.8857 115.183 55.9795 116.392L91.0877 136.654C93.1772 137.859 96.5738 137.859 98.6676 136.654Z" fill="#455A64"/>
<path d="M73.5162 70.6553C71.0882 70.4142 69.079 73.1932 65.031 75.1898C57.4933 78.8782 54.0967 82.2325 50.5859 86.3271C47.0751 90.4216 45.7469 89.711 44.6641 92.2743C43.5812 94.8376 46.5548 95.9205 47.9719 99.537C50.3533 105.637 53.3142 109.731 56.402 112.273C61.8459 116.761 61.0126 119.887 63.4913 119.853C66.1308 119.824 65.9404 117.561 70.0857 115.949C79.8991 112.142 83.9259 108.758 88.4604 102.033C90.2327 99.4101 92.4873 99.6301 92.9187 97.1006C93.1302 95.8316 91.2902 95.1549 89.6279 91.1788C86.87 84.5801 82.4624 78.3876 78.1691 75.1728C76.3037 73.7727 75.9864 70.9006 73.5162 70.6553Z" fill="#7E57C2"/>
<path opacity="0.3" d="M73.5162 70.6553C71.0882 70.4142 69.079 73.1932 65.031 75.1898C57.4933 78.8782 54.0967 82.2325 50.5859 86.3271C47.0751 90.4216 45.7469 89.711 44.6641 92.2743C43.5812 94.8376 46.5548 95.9205 47.9719 99.537C50.3533 105.637 53.3142 109.731 56.402 112.273C61.8459 116.761 61.0126 119.887 63.4913 119.853C66.1308 119.824 65.9404 117.561 70.0857 115.949C79.8991 112.142 83.9259 108.758 88.4604 102.033C90.2327 99.4101 92.4873 99.6301 92.9187 97.1006C93.1302 95.8316 91.2902 95.1549 89.6279 91.1788C86.87 84.5801 82.4624 78.3876 78.1691 75.1728C76.3037 73.7727 75.9864 70.9006 73.5162 70.6553Z" fill="black"/>
<path opacity="0.2" d="M47.3454 96.5252C49.4181 99.4862 49.1431 102.396 53.4069 107.798C57.5014 112.984 60.4666 114.439 61.6932 116.77C62.7126 118.703 64.1043 119.608 64.4384 117.345C64.7726 115.082 62.9918 108.614 58.8634 103.073C54.1133 96.6987 51.0804 94.258 49.0289 93.3444C45.8142 91.8554 45.7127 94.2326 47.3454 96.5252Z" fill="black"/>
<path opacity="0.2" d="M70.2634 113.453C67.5563 114.388 67.4379 116.791 66.0801 118.644C67.1971 117.451 68.5714 116.53 70.0985 115.949C74.5695 114.211 77.8392 112.565 80.4998 110.645C77.0355 112.472 72.2303 112.777 70.2634 113.453ZM87.2169 101.001C85.5249 102.549 85.7026 105.298 83.6849 107.95C85.4752 106.142 87.0793 104.158 88.4731 102.029C90.0932 99.6344 92.1109 99.6048 92.7749 97.6929C91.2903 99.5752 89.2345 99.1522 87.2169 101.001Z" fill="black"/>
<path opacity="0.3" d="M70.1405 76.4966C64.3625 77.5795 58.5844 80.5573 54.6083 85.003C53.8276 85.9363 53.4475 87.1406 53.5509 88.353C53.6004 89.1102 53.8404 89.8426 54.2486 90.4822C54.6568 91.1218 55.2199 91.648 55.8858 92.0119C57.2436 92.7775 59.2316 92.7817 60.6486 92.5999C63.6392 92.2149 65.403 91.4324 69.2692 91.3732C70.6914 91.3858 72.0898 91.7398 73.3468 92.4053C75.2545 93.467 76.6799 94.664 78.3507 95.5608C80.6518 96.7917 84.7379 96.2291 86.1549 94.8079C87.6692 93.2936 88.0118 91.001 86.654 88.1585C83.6424 81.8136 78.0208 75.6211 70.1405 76.4966Z" fill="#7E57C2"/>
<path d="M83.52 163.382V139.724C83.52 137.317 81.8281 134.361 79.7131 133.16L40.8404 110.728L37.8794 85.4378C37.5622 83.048 35.5953 80.1124 33.51 78.9069L30.4221 77.1261C28.341 75.9206 26.6152 76.9061 26.6152 79.313V130.533C26.6152 132.94 28.3072 135.892 30.4221 137.098L79.7131 165.573C81.8281 166.774 83.52 165.789 83.52 163.382Z" fill="#263238"/>
<path d="M92.1917 134.708V158.37C92.196 158.452 92.196 158.533 92.1917 158.615C92.086 160.963 90.449 163.738 88.4441 164.918H88.4102L87.3189 165.552C87.227 165.612 87.1292 165.661 87.027 165.7C86.9771 165.731 86.9248 165.758 86.8705 165.781C86.8705 165.781 86.8367 165.781 86.8282 165.781C86.7277 165.825 86.6245 165.863 86.5195 165.895C84.727 166.549 82.7708 166.604 80.9445 166.051C80.7207 165.984 80.5017 165.902 80.2888 165.806C82.1077 166.559 83.5205 165.535 83.5289 163.357V139.724C83.5289 137.318 81.837 134.361 79.722 133.16L72.8442 129.184L40.8408 110.729L45.7306 107.899C47.8117 106.702 51.2294 106.702 53.3106 107.899L81.5282 124.192L88.4018 128.16C90.4913 129.34 92.1917 132.301 92.1917 134.708Z" fill="#455A64"/>
<path d="M83.5204 139.724V163.391C83.5204 165.569 82.0991 166.593 80.2803 165.84C80.4931 165.936 80.7121 166.018 80.9359 166.085C82.7622 166.638 84.7185 166.583 86.5109 165.929C86.616 165.897 86.7191 165.859 86.8197 165.814C86.8197 165.814 86.8451 165.814 86.862 165.814C86.9162 165.792 86.9686 165.765 87.0185 165.734C87.1206 165.695 87.2185 165.645 87.3104 165.586L88.4017 164.952H88.4355C90.4405 163.771 92.0774 160.997 92.1832 158.649C92.1874 158.567 92.1874 158.485 92.1832 158.404V134.708C92.1378 133.39 91.7547 132.105 91.0707 130.977L82.3952 135.989C83.0824 137.118 83.4698 138.404 83.5204 139.724V139.724Z" fill="#37474F"/>
<g opacity="0.2">
<path d="M40.8408 110.728C42.0463 110.004 44.6477 108.435 45.8279 107.767C47.0046 107.179 48.3027 106.874 49.6182 106.878C50.9338 106.882 52.2302 107.193 53.4036 107.788C60.937 112.06 74.4135 119.852 81.8962 124.225L88.5709 128.151C89.6476 128.888 90.5362 129.867 91.1651 131.01C91.794 132.154 92.1456 133.428 92.1917 134.732C92.1075 133.45 91.7273 132.204 91.0807 131.093C90.4341 129.982 89.5389 129.035 88.4652 128.328L81.7354 124.521C74.1893 120.22 60.7298 112.454 53.2556 108.059C52.1238 107.47 50.8714 107.152 49.5961 107.127C48.3208 107.103 47.0572 107.374 45.904 107.919C44.7154 108.562 42.0463 110.085 40.8281 110.749L40.8408 110.728Z" fill="white"/>
</g>
<path d="M114.698 130.186L121.466 121.544L131.77 129.293C124.804 133.916 117.131 139.694 115.236 141.94C115.236 141.94 109.36 139.373 109.014 136.057C108.667 132.74 112.846 130.896 114.698 130.186Z" fill="#C8856A"/>
<path d="M107.051 132.593C106.423 132.881 105.861 133.294 105.397 133.807C104.885 134.319 104.45 137.191 103.815 138.426C103.181 139.661 102.817 139.965 101.861 141.497C100.803 143.189 99.1791 144.61 99.712 149.605C100.245 154.601 102.144 157.304 103.891 158.839C104.55 159.365 105.327 159.725 106.154 159.888C106.154 159.888 108.933 159.419 108.836 157.811C108.739 156.204 107.051 132.593 107.051 132.593Z" fill="#263238"/>
<path d="M117.358 139.991C117.189 140.46 116.364 141.074 116.013 141.416C114.825 142.567 114.042 144.28 113.412 145.794C110.421 152.943 112.638 157.312 108.078 159.33C106.771 159.833 104.402 159.161 101.661 153.742C100.261 150.976 100.164 145.832 101.335 143.743C102.507 141.653 103.789 140.393 104.597 138.768C105.405 137.144 105.794 133.891 107.033 132.605C107.812 131.893 108.742 131.365 109.753 131.061C110.548 130.77 112.215 130.503 113.023 130.215C113.831 129.928 114.321 129.556 114.681 130.173L113.657 131.032C111.995 132.584 112.308 132.923 112.151 133.891C111.995 134.86 111.441 135.9 111.06 136.852C112.219 135.862 112.803 134.911 113.78 135.291C114.757 135.672 114.892 135.647 116.077 137.296C117.261 138.946 117.523 139.572 117.358 139.991Z" fill="#7E57C2"/>
<path opacity="0.4" d="M117.358 139.991C117.189 140.46 116.364 141.074 116.013 141.416C114.825 142.567 114.042 144.28 113.412 145.794C110.421 152.943 112.638 157.312 108.078 159.33C106.771 159.833 104.402 159.161 101.661 153.742C100.261 150.976 100.164 145.832 101.335 143.743C102.507 141.653 103.789 140.393 104.597 138.768C105.405 137.144 105.794 133.891 107.033 132.605C107.812 131.893 108.742 131.365 109.753 131.061C110.548 130.77 112.215 130.503 113.023 130.215C113.831 129.928 114.321 129.556 114.681 130.173L113.657 131.032C111.995 132.584 112.308 132.923 112.151 133.891C111.995 134.86 111.441 135.9 111.06 136.852C112.219 135.862 112.803 134.911 113.78 135.291C114.757 135.672 114.892 135.647 116.077 137.296C117.261 138.946 117.523 139.572 117.358 139.991Z" fill="black"/>
<path opacity="0.3" d="M101.679 153.729C100.279 150.963 100.181 145.819 101.353 143.73C101.738 143.041 102.161 142.374 102.622 141.733C102.559 141.877 102.482 142.025 102.44 142.156C102.334 142.44 102.241 142.719 102.157 143.002C101.762 144.11 101.66 145.3 101.861 146.458C102.102 147.469 102.614 149.99 103.857 150.286C104.563 150.455 105.3 149.863 105.727 149.14C105.909 148.827 106.277 147.96 106.277 147.96C107.374 148.454 108.387 149.119 109.276 149.931C110.858 151.492 110.739 151.746 110.739 151.746C110.527 152.25 110.402 152.786 110.367 153.332C110.357 153.926 110.482 154.514 110.731 155.053C110.841 155.222 110.972 155.377 111.12 155.514C110.697 157.206 109.99 158.475 108.079 159.321C106.784 159.82 104.42 159.148 101.679 153.729Z" fill="black"/>
<path d="M113.429 145.794C112.651 147.676 112.101 149.644 111.792 151.657C110.73 153.429 110.142 153.256 110.256 152.249C110.37 151.242 112.49 147.402 114.139 144.212C113.877 144.737 113.644 145.278 113.429 145.794Z" fill="#37474F"/>
<path d="M111.247 132.952C111.356 131.97 111.805 131.058 112.516 130.372C112.71 130.321 112.897 130.27 113.045 130.224C113.916 129.932 114.343 129.564 114.703 130.182L113.658 131.032C111.996 132.584 112.309 132.923 112.152 133.891C111.996 134.86 111.442 135.9 111.061 136.852C109.665 139.936 108.76 140.883 107.8 143.865C106.839 146.847 107.047 149.026 106.581 149.115C106.116 149.203 105.312 148.692 105.638 146.205C105.964 143.717 107.85 139.822 108.997 138.02C110.143 136.218 111.145 134.289 111.247 132.952Z" fill="#37474F"/>
<path d="M106.036 148.125C106.07 148.177 106.118 148.219 106.175 148.243C108.235 149.089 109.272 149.872 110.498 152.05C110.54 152.121 110.607 152.173 110.686 152.195C110.765 152.217 110.849 152.207 110.921 152.169C110.993 152.128 111.045 152.061 111.067 151.982C111.089 151.902 111.079 151.818 111.04 151.746C109.741 149.428 108.603 148.569 106.416 147.651C106.378 147.633 106.336 147.622 106.293 147.621C106.25 147.619 106.207 147.627 106.168 147.643C106.128 147.659 106.092 147.683 106.062 147.713C106.032 147.744 106.008 147.78 105.993 147.82C105.972 147.87 105.965 147.925 105.973 147.979C105.98 148.032 106.002 148.083 106.036 148.125V148.125Z" fill="#EBEBEB"/>
<path d="M106.923 145.655C106.957 145.705 107.004 145.744 107.059 145.769C109.174 146.72 110.286 147.592 111.589 149.906C111.629 149.978 111.696 150.031 111.775 150.054C111.854 150.077 111.939 150.068 112.012 150.028C112.082 149.986 112.133 149.919 112.156 149.841C112.178 149.762 112.171 149.678 112.135 149.605C110.756 147.169 109.554 146.221 107.308 145.202C107.231 145.168 107.143 145.165 107.064 145.195C106.984 145.225 106.92 145.286 106.885 145.363C106.867 145.411 106.861 145.462 106.868 145.513C106.875 145.564 106.894 145.613 106.923 145.655V145.655Z" fill="#EBEBEB"/>
<path d="M107.423 142.838C107.459 142.894 107.51 142.938 107.571 142.965C109.906 144.014 111.196 145.054 112.647 147.617C112.694 147.698 112.77 147.758 112.86 147.783C112.95 147.808 113.047 147.797 113.129 147.753C113.169 147.73 113.205 147.7 113.233 147.664C113.262 147.628 113.283 147.586 113.295 147.541C113.307 147.497 113.31 147.45 113.304 147.405C113.298 147.359 113.283 147.315 113.26 147.275C111.746 144.593 110.35 143.447 107.875 142.334C107.806 142.308 107.731 142.303 107.659 142.322C107.588 142.341 107.524 142.382 107.477 142.439C107.43 142.496 107.402 142.567 107.398 142.641C107.394 142.715 107.413 142.788 107.452 142.85L107.423 142.838Z" fill="#EBEBEB"/>
<path d="M108.302 140.52C108.338 140.574 108.387 140.618 108.446 140.647C110.739 141.67 111.982 142.673 113.395 145.181C113.442 145.259 113.517 145.315 113.604 145.34C113.691 145.364 113.785 145.354 113.865 145.312C113.904 145.29 113.939 145.26 113.967 145.225C113.995 145.189 114.016 145.148 114.028 145.105C114.041 145.061 114.044 145.015 114.038 144.97C114.033 144.925 114.018 144.882 113.996 144.843C112.515 142.212 111.158 141.103 108.73 140.016C108.646 139.979 108.551 139.976 108.466 140.009C108.38 140.041 108.311 140.106 108.273 140.19C108.249 140.243 108.239 140.301 108.245 140.359C108.25 140.416 108.27 140.472 108.302 140.52Z" fill="#EBEBEB"/>
<path d="M109.639 138.358C109.674 138.414 109.726 138.458 109.787 138.485C112.075 139.513 113.319 140.511 114.736 143.019C114.782 143.098 114.857 143.155 114.944 143.179C115.032 143.204 115.125 143.193 115.205 143.15C115.285 143.105 115.343 143.03 115.367 142.942C115.392 142.855 115.381 142.761 115.336 142.681C113.848 140.05 112.494 138.946 110.066 137.854C110.025 137.836 109.981 137.826 109.936 137.825C109.891 137.824 109.846 137.831 109.804 137.847C109.762 137.864 109.723 137.888 109.691 137.919C109.658 137.95 109.632 137.987 109.613 138.028C109.589 138.08 109.579 138.138 109.583 138.196C109.587 138.254 109.607 138.31 109.639 138.358Z" fill="#EBEBEB"/>
<path d="M107.287 90.1626C107.418 92.0999 118.509 95.3442 127.024 97.751C136.799 100.517 141.481 102.586 145.17 106.05C147.251 108.009 148.499 110.53 148.012 113.829C147.657 116.231 145.732 120.174 141.316 123.913C132.945 131.032 128.825 132.724 122.895 136.873C122.895 136.873 116.55 132.982 115.408 128.257L123.737 118.486L98.6621 111.997L107.287 90.1626Z" fill="#7E57C2"/>
<path opacity="0.4" d="M107.287 90.1626C107.418 92.0999 118.509 95.3442 127.024 97.751C136.799 100.517 141.481 102.586 145.17 106.05C147.251 108.009 148.499 110.53 148.012 113.829C147.657 116.231 145.732 120.174 141.316 123.913C132.945 131.032 128.825 132.724 122.895 136.873C122.895 136.873 116.55 132.982 115.408 128.257L123.737 118.486L98.6621 111.997L107.287 90.1626Z" fill="white"/>
<path opacity="0.5" d="M127.625 127.804C128.145 129.539 129.004 132.648 129.013 132.88C127.494 133.836 124.567 135.693 122.896 136.856C122.896 136.856 116.551 132.965 115.409 128.24L122.706 119.683C125.349 122.149 126.242 123.228 127.625 127.804Z" fill="#7E57C2"/>
<path opacity="0.5" d="M126.097 113.182C124.012 115.144 123.166 115.034 118.906 114.21L117.257 113.884L108.226 106.693C109.224 103.377 109.601 100.771 108.488 98.0049L104.406 94.6929L98.6621 111.997L101.733 112.797L123.728 118.499C126.757 114.573 129.997 110.885 133.148 110.403C131.059 109.975 128.995 110.453 126.097 113.182Z" fill="#7E57C2"/>
<path d="M127.671 168.471L120.269 155.811L132.535 148.108C135.428 156.06 137.67 165.497 139.942 168.716C139.942 168.716 136.528 174.545 132.81 174.046C129.092 173.546 127.971 170.641 127.671 168.471Z" fill="#C8856A"/>
<path d="M128.521 175.222C128.68 175.972 128.988 176.682 129.427 177.311C129.85 177.992 132.874 179.215 134.08 180.221C135.285 181.228 135.505 181.693 136.931 183.119C138.508 184.701 139.642 186.807 145.242 187.556C150.919 188.317 154.294 186.993 156.426 185.53C157.168 184.967 157.76 184.23 158.152 183.385C158.152 183.385 158.359 180.293 156.578 179.972C154.798 179.65 128.521 175.222 128.521 175.222Z" fill="#263238"/>
<path d="M139.283 166.14C139.752 166.44 140.209 167.485 140.493 167.955C141.444 169.528 143.119 170.814 144.608 171.889C151.659 176.964 157.01 175.759 158.025 181.165C158.241 182.692 156.888 185.048 150.255 186.545C146.871 187.311 141.22 186.054 139.257 184.253C137.295 182.451 136.229 180.746 134.659 179.452C133.09 178.157 129.634 176.888 128.543 175.222C127.904 174.245 127.697 173.039 127.557 171.91C127.443 170.979 127.24 167.832 127.24 167.832C128.509 170.019 130.282 169.693 131.301 170.12C132.32 170.548 133.314 171.389 134.262 172.07C133.479 170.565 132.591 169.693 133.259 168.746C133.928 167.798 133.932 167.654 136.047 166.821C138.162 165.988 138.864 165.869 139.283 166.14Z" fill="#7E57C2"/>
<path opacity="0.4" d="M139.283 166.14C139.752 166.44 140.209 167.485 140.493 167.955C141.444 169.528 143.119 170.814 144.608 171.889C151.659 176.964 157.01 175.759 158.025 181.165C158.241 182.692 156.888 185.048 150.255 186.545C146.871 187.311 141.22 186.054 139.257 184.253C137.295 182.451 136.229 180.746 134.659 179.452C133.09 178.157 129.634 176.888 128.543 175.222C127.904 174.245 127.697 173.039 127.557 171.91C127.443 170.979 127.24 167.832 127.24 167.832C128.509 170.019 130.282 169.693 131.301 170.12C132.32 170.548 133.314 171.389 134.262 172.07C133.479 170.565 132.591 169.693 133.259 168.746C133.928 167.798 133.932 167.654 136.047 166.821C138.162 165.988 138.864 165.869 139.283 166.14Z" fill="black"/>
<path opacity="0.3" d="M150.255 186.545C146.871 187.311 141.22 186.054 139.257 184.252C138.604 183.655 137.985 183.021 137.404 182.353C137.548 182.455 137.688 182.577 137.827 182.658C138.106 182.84 138.394 183.017 138.673 183.182C139.79 183.825 141.063 184.396 142.379 184.409C143.546 184.409 146.435 184.54 147.082 183.288C147.45 182.577 147.01 181.638 146.308 180.987C146.016 180.708 145.162 180.086 145.162 180.086C145.988 179.04 146.978 178.134 148.093 177.404C150.208 176.135 150.454 176.317 150.454 176.317C150.936 176.674 151.473 176.951 152.044 177.138C152.692 177.299 153.367 177.321 154.024 177.201C154.236 177.128 154.439 177.03 154.628 176.909C156.388 177.798 157.589 178.897 158.012 181.165C158.237 182.692 156.887 185.048 150.255 186.545Z" fill="black"/>
<path d="M144.608 171.889C146.47 173.22 148.481 174.327 150.602 175.188C152.264 176.791 151.922 177.375 150.851 176.986C149.781 176.597 146.122 173.331 143.056 170.708C143.584 171.131 144.1 171.525 144.608 171.889Z" fill="#37474F"/>
<path d="M130.002 170.835C128.978 170.505 128.154 170.374 127.375 169.685C126.876 169.262 126.859 167.925 127.024 167.362L127.718 168.538C129.122 169.596 130.256 169.693 131.279 170.12C132.303 170.547 133.293 171.389 134.24 172.07C137.256 174.375 138.047 175.594 141.072 177.408C144.096 179.223 146.545 179.574 146.507 180.099C146.469 180.623 145.708 181.342 143.081 180.34C140.454 179.337 136.668 176.292 134.998 174.6C133.327 172.908 131.436 171.296 130.002 170.835Z" fill="#37474F"/>
<path d="M145.25 180.407C145.317 180.386 145.374 180.345 145.415 180.289C146.892 178.318 147.996 177.412 150.711 176.681C150.799 176.656 150.873 176.598 150.918 176.519C150.964 176.439 150.976 176.346 150.952 176.258C150.926 176.171 150.867 176.099 150.788 176.055C150.709 176.01 150.617 175.998 150.529 176.021C147.657 176.795 146.431 177.785 144.857 179.883C144.815 179.943 144.793 180.015 144.795 180.089C144.797 180.162 144.822 180.233 144.866 180.292C144.911 180.35 144.973 180.393 145.044 180.413C145.114 180.434 145.19 180.432 145.259 180.407H145.25Z" fill="#EBEBEB"/>
<path d="M142.776 178.804C142.841 178.783 142.898 178.743 142.941 178.69C144.527 176.681 145.762 175.729 148.634 174.943C148.678 174.931 148.72 174.911 148.756 174.884C148.792 174.856 148.822 174.822 148.845 174.782C148.867 174.743 148.882 174.699 148.887 174.654C148.892 174.609 148.888 174.563 148.876 174.52C148.849 174.433 148.79 174.36 148.712 174.315C148.633 174.27 148.541 174.257 148.453 174.278C145.428 175.124 144.07 176.14 142.387 178.271C142.337 178.334 142.31 178.411 142.31 178.49C142.309 178.57 142.335 178.648 142.384 178.71C142.433 178.773 142.501 178.818 142.579 178.837C142.656 178.857 142.737 178.85 142.81 178.817L142.776 178.804Z" fill="#EBEBEB"/>
<path d="M139.824 177.531C139.894 177.505 139.957 177.461 140.006 177.404C141.753 175.183 143.225 174.084 146.385 173.221C146.434 173.208 146.481 173.186 146.522 173.154C146.563 173.123 146.597 173.084 146.622 173.039C146.647 172.995 146.663 172.946 146.669 172.895C146.675 172.844 146.67 172.792 146.655 172.743C146.621 172.646 146.552 172.564 146.461 172.515C146.371 172.465 146.265 172.45 146.165 172.472C142.84 173.386 141.233 174.587 139.376 176.926C139.345 176.967 139.322 177.013 139.309 177.063C139.297 177.113 139.294 177.164 139.301 177.215C139.308 177.265 139.325 177.314 139.351 177.358C139.377 177.402 139.411 177.441 139.452 177.472C139.505 177.51 139.566 177.535 139.631 177.545C139.696 177.555 139.762 177.551 139.824 177.531V177.531Z" fill="#EBEBEB"/>
<path d="M137.518 175.979C137.587 175.957 137.648 175.914 137.692 175.856C139.405 173.678 140.826 172.612 143.931 171.762C144.027 171.734 144.108 171.67 144.157 171.583C144.206 171.496 144.219 171.393 144.193 171.296C144.164 171.199 144.097 171.116 144.008 171.066C143.919 171.017 143.814 171.004 143.715 171.03C140.454 171.922 138.893 173.081 137.078 175.387C137.048 175.426 137.025 175.471 137.012 175.52C136.999 175.568 136.996 175.619 137.002 175.668C137.009 175.718 137.026 175.766 137.051 175.809C137.076 175.852 137.11 175.89 137.15 175.92C137.202 175.96 137.262 175.986 137.327 175.996C137.391 176.007 137.457 176.001 137.518 175.979Z" fill="#EBEBEB"/>
<path d="M135.5 173.978C135.568 173.951 135.628 173.907 135.674 173.851C137.391 171.677 138.804 170.611 141.913 169.761C142.01 169.733 142.092 169.668 142.141 169.58C142.19 169.492 142.202 169.388 142.175 169.291C142.145 169.194 142.078 169.113 141.989 169.064C141.9 169.015 141.795 169.002 141.697 169.029C138.432 169.921 136.875 171.08 135.056 173.386C134.995 173.466 134.968 173.567 134.982 173.667C134.995 173.767 135.048 173.857 135.128 173.919C135.18 173.958 135.242 173.985 135.307 173.995C135.372 174.005 135.438 173.999 135.5 173.978V173.978Z" fill="#EBEBEB"/>
<path d="M107.363 90.2769C96.0353 91.4485 84.0689 93.1447 72.7751 94.2699C72.4833 99.7307 71.6584 104.269 73.4138 109.857C75.017 114.975 79.7375 119.163 84.4412 122.077C90.0204 125.533 101.035 129.763 105.434 132.089C111.779 135.452 109.749 136.742 111.864 142.618C113.221 146.37 115.201 149.652 119.054 155.481C121.461 159.123 122.489 160.781 124.756 163.915C128.838 165.349 133.948 162.798 136.549 159.457C133.309 149.394 129.917 138.954 126.888 129.002C125.196 123.452 123.775 121.515 118.851 117.505C115.002 114.358 110.51 111.046 105.438 107.332C110.785 99.4853 107.498 94.511 107.363 90.2769Z" fill="#7E57C2"/>
<path opacity="0.4" d="M107.363 90.2769C96.0353 91.4485 84.0689 93.1447 72.7751 94.2699C72.4833 99.7307 71.6584 104.269 73.4138 109.857C75.017 114.975 79.7375 119.163 84.4412 122.077C90.0204 125.533 101.035 129.763 105.434 132.089C111.779 135.452 109.749 136.742 111.864 142.618C113.221 146.37 115.201 149.652 119.054 155.481C121.461 159.123 122.489 160.781 124.756 163.915C128.838 165.349 133.948 162.798 136.549 159.457C133.309 149.394 129.917 138.954 126.888 129.002C125.196 123.452 123.775 121.515 118.851 117.505C115.002 114.358 110.51 111.046 105.438 107.332C110.785 99.4853 107.498 94.511 107.363 90.2769Z" fill="white"/>
<path d="M135.661 156.255C133.174 160.337 127.438 161.838 122.972 161.563C123.695 162.832 124.588 163.962 125.307 165.222C130.04 166.102 133.923 164.11 136.816 160.396C136.452 159.009 136.063 157.63 135.661 156.255Z" fill="#7E57C2"/>
<path d="M91.7725 49.6307C98.6672 49.1062 101.501 49.5926 107.77 59.5709C112.169 66.5883 121.729 79.2315 121.729 79.2315L112.046 87.6574C107.66 81.1899 102.897 76.7105 95.8628 67.282L91.7725 49.6307Z" fill="#E0E0E0"/>
<path d="M103.1 63.3182C101.193 52.773 97.2335 49.5287 91.7727 49.6302C91.6712 49.6302 84.2943 50.8992 80.0305 51.8467C78.0129 52.2993 70.4879 55.6155 68.3602 56.9226C65.6404 58.5765 64.3926 63.6608 65.0144 71.1942C65.6638 78.4499 66.7828 85.6558 68.3645 92.7667C69.6588 98.8408 69.8872 101.607 72.4759 109.361C80.187 111.192 110.321 101.248 109.246 91.7642C108.282 89.6493 106.708 87.2636 105.719 82.911C104.247 75.238 103.697 66.6302 103.1 63.3182Z" fill="#FAFAFA"/>
<path d="M76.3966 47.7299C75.999 44.7267 73.1396 41.5035 71.896 38.8471C70.6947 36.3092 70.2041 34.3253 70.2294 31.9608C70.3014 23.3826 78.0886 18.6493 85.5078 19.4911C98.9673 21.0181 97.6942 30.8822 97.3515 32.6799C97.1823 33.5766 96.0826 35.036 95.5411 35.7847C94.9997 36.5333 94.158 36.5333 93.2655 36.4403C92.3729 36.3472 91.5016 36.6856 90.6006 36.8633C89.5601 37.0536 88.4857 37.1974 87.462 37.3751L84.6238 37.8573C84.4588 37.8869 83.6086 37.9081 83.5029 38.0476L76.3966 47.7299Z" fill="#263238"/>
<path d="M72.6366 42.3494C74.6923 43.6776 76.1601 42.3747 76.1601 42.3747L75.9359 53.622C77.4206 57.8942 83.757 58.1142 86.4176 57.006C89.0782 55.8977 88.8244 54.1931 88.0291 52.6745L88.2703 51.0714C89.4555 51.134 90.6435 51.1241 91.8276 51.0418C94.1794 50.8049 96.0067 48.9734 96.7681 46.4608C97.5633 43.8383 97.8806 39.6211 97.4195 36.4233C97.2959 35.5824 97.2874 34.7286 97.3941 33.8853C97.906 29.8966 95.2496 25.8485 91.7303 24.1566C90.6348 24.1016 91.7303 25.0449 91.8107 26.0347C91.8741 26.7495 91.0281 27.2486 90.3175 27.3586C89.3954 27.4323 88.4694 27.2753 87.6231 26.9018C85.6139 26.1827 83.5581 25.3198 81.4305 25.4848C80.9821 25.5186 80.4238 25.7301 80.428 26.1785C80.4448 26.3295 80.4969 26.4744 80.5803 26.6015C80.9483 27.2783 81.4009 27.9339 81.7308 28.6234C82.2511 29.6978 82.7629 31.4405 82.3822 32.6375C82.1356 33.3334 81.74 33.9671 81.2233 34.4945C81.071 34.6636 79.4255 35.8099 79.4255 35.8057C79.5059 36.7025 79.5355 38.9655 78.0677 38.8682C77.0145 38.8005 76.7099 36.0807 75.6652 34.8751C74.6204 33.6696 72.1036 33.2636 71.0588 34.9471C69.5995 37.3116 70.4074 40.8943 72.6366 42.3494Z" fill="#C8856A"/>
<path d="M88.2698 51.0842C84.5729 50.5089 81.7642 50.0056 79.9284 47.2435C79.077 45.8279 78.3807 44.3246 77.8516 42.7598C77.8516 42.7598 78.1096 46.0633 79.2432 48.3348C80.1146 50.0859 82.2676 51.6848 88.071 52.3955L88.2698 51.0842Z" fill="#AF6152"/>
<path d="M90.9639 41.5922C87.58 41.4695 87.0132 42.3493 83.8831 42.7723C79.687 43.3391 79.1541 39.0246 79.4248 37.1043L76.4385 36.0637C77.2845 38.0729 76.6457 41.6599 77.4833 45.1284C78.3208 48.5969 80.4442 49.7813 83.3247 50.6907C86.2053 51.6001 91.6788 52.0358 94.6482 50.3735C98.1251 48.4319 97.5372 42.0067 97.5372 42.0067C95.3165 42.9119 94.3563 41.7191 90.9639 41.5922Z" fill="#263238"/>
<path d="M90.2871 43.4704C88.3879 43.3435 87.1189 43.8934 86.6663 45.2047C86.2137 46.5159 86.3829 47.4338 87.0174 47.5438C87.6519 47.6538 89.162 47.5438 89.2719 46.8966C89.3819 46.2495 88.426 45.5388 89.9022 45.6784C91.3784 45.818 90.3548 46.5582 90.3252 47.0912C90.2956 47.6242 91.0231 48.0176 92.7151 47.7807C93.6414 47.6495 93.4469 46.3467 93.3157 45.5135C93.1846 44.6802 92.216 43.5762 90.2871 43.4704Z" fill="#C8856A"/>
<path d="M90.2621 44.7395C90.1496 44.7268 90.0361 44.7268 89.9237 44.7395H89.6233C89.4605 44.7275 89.2991 44.7006 89.1411 44.6591C88.9686 44.6117 88.8024 44.5435 88.6462 44.4561C88.48 44.3275 88.3015 44.2156 88.1133 44.1219C88.0329 44.1008 87.8933 44.1515 87.8976 44.2488C87.9142 44.3368 87.9497 44.4201 88.0015 44.4931C88.0533 44.5661 88.1203 44.6271 88.1979 44.6718C88.3357 44.7777 88.4864 44.8658 88.6462 44.9341C88.9572 45.062 89.2876 45.1363 89.6233 45.154C89.8036 45.1667 89.9845 45.1667 90.1648 45.154C90.2663 45.154 90.3932 45.154 90.4355 45.0271C90.4778 44.9002 90.3805 44.7395 90.2621 44.7395Z" fill="#AF6152"/>
<path d="M82.7327 33.1494L75.2246 34.4734C75.6503 34.7684 75.988 35.1733 76.2017 35.6451L82.7919 34.7991L82.7327 33.1494Z" fill="#37474F"/>
<path d="M99.1285 32.4049L98.6674 32.3668C97.1785 32.2696 95.2201 32.3119 94.0145 32.7348C92.4833 33.272 91.8996 33.8177 91.079 33.86C90.2584 33.9023 89.6958 33.3989 88.1604 33.014C86.9379 32.701 84.8314 32.8448 83.1987 33.0902L82.6911 33.1705C82.5059 33.2363 82.3437 33.3545 82.2243 33.5106C82.1049 33.6668 82.0334 33.8543 82.0186 34.0503C82.0252 34.4076 82.1469 34.7532 82.3654 35.0359C82.4292 35.1594 82.4667 35.2948 82.4754 35.4335C82.5558 36.1272 82.4754 37.4808 82.7249 38.221C82.8292 38.5846 83.0046 38.9239 83.241 39.2193C83.3312 39.3236 83.4302 39.4198 83.5371 39.5069C83.5921 39.5529 83.65 39.5953 83.7105 39.6338C83.8772 39.7445 84.0579 39.8327 84.2477 39.8961L84.3408 39.9257L84.4846 39.968L84.6411 40.0018C84.8044 40.0335 84.9698 40.0532 85.136 40.061H85.3517H85.6351C86.4062 40.0623 87.1624 39.8489 87.819 39.4447C88.4757 39.0406 89.0069 38.4616 89.3532 37.7726C89.9834 36.6813 90.0088 35.184 90.9606 35.1459H91.0494H91.1298C91.815 35.2855 91.595 36.6644 91.9419 37.6415C92.0662 38.0297 92.2597 38.3923 92.5129 38.7117C92.5595 38.7667 92.6102 38.8217 92.661 38.8724L92.7413 38.9528L92.8217 39.0247C92.8467 39.0468 92.8736 39.0666 92.9021 39.0839L92.9824 39.1474L93.0501 39.1897L93.0967 39.2235C93.3457 39.3709 93.6172 39.4767 93.9003 39.5365H93.9722C94.3054 39.5988 94.6451 39.6187 94.9832 39.5957C95.6506 39.5844 96.3001 39.3782 96.8517 39.0024C97.4034 38.6266 97.8331 38.0977 98.0879 37.4808C98.4602 36.7067 98.6801 35.3658 98.8874 34.6468C98.9277 34.5096 98.997 34.3827 99.0904 34.2745C99.3498 33.9795 99.5252 33.6201 99.598 33.234C99.6318 32.8152 99.3823 32.4303 99.1285 32.4049ZM88.9048 36.7829C88.7297 37.3532 88.4258 37.8757 88.0165 38.3098V38.3098C87.7042 38.6191 87.3337 38.8636 86.9264 39.0291C86.5191 39.1946 86.0832 39.2779 85.6436 39.2743C84.51 39.3081 83.9093 38.8513 83.5878 38.276C83.5878 38.2379 83.5498 38.2041 83.5329 38.1703L83.4821 38.0645L83.444 37.9672C83.4302 37.9386 83.4189 37.9089 83.4102 37.8784L83.3848 37.8107C83.3848 37.8107 83.3848 37.7684 83.3637 37.7473L83.3341 37.6415C83.3063 37.5398 83.2837 37.4367 83.2664 37.3327V37.3327C83.2664 37.2693 83.2452 37.2058 83.2368 37.1466C83.2283 37.0874 83.2114 36.9394 83.2029 36.8463C83.2029 36.8463 83.2029 36.8082 83.2029 36.7913C83.2029 36.7744 83.2029 36.7532 83.2029 36.7363C83.1395 36.0003 83.1395 34.5579 83.5329 34.1984C83.9262 33.8388 84.9033 33.4793 86.4092 33.5639H86.5699C86.7998 33.5805 87.0286 33.6101 87.2552 33.6527L87.5174 33.7119C87.7385 33.7643 87.9561 33.8307 88.1688 33.9108L88.3676 33.9911C88.4405 34.0198 88.5112 34.0538 88.5791 34.0926H88.6214L88.7018 34.1349C88.8702 34.2201 89.0154 34.3449 89.1248 34.4987C89.3659 34.9851 89.1671 35.9453 88.9048 36.7829V36.7829ZM97.9018 36.0553C97.7368 36.639 97.3815 37.9122 96.2522 38.5213C95.8882 38.7121 95.4867 38.8204 95.0762 38.8386C93.8411 38.9189 93.1939 38.4156 92.8598 37.8149C92.8598 37.8149 92.8344 37.7684 92.8259 37.7473C92.8099 37.7222 92.7971 37.6952 92.7879 37.6669C92.7792 37.6551 92.7721 37.6424 92.7667 37.6288C92.7667 37.5908 92.7329 37.5485 92.7202 37.5104C92.7007 37.4663 92.6838 37.4211 92.6694 37.375C92.6694 37.375 92.6694 37.3327 92.6483 37.3116V37.2735V37.2185V37.172C92.6036 36.9913 92.5725 36.8075 92.5552 36.6221C92.4749 35.8057 92.4833 34.8498 92.8175 34.3887C93.1516 33.9277 94.3191 33.382 95.4146 33.1917C95.647 33.1509 95.8814 33.1227 96.1168 33.1071H96.7344H96.9205C97.037 33.1152 97.1528 33.1308 97.2673 33.1536H97.3477H97.4027H97.483L97.5803 33.1832C97.6353 33.199 97.689 33.2188 97.7411 33.2424H97.7707C97.9017 33.2969 98.022 33.3742 98.126 33.4708C98.4221 33.8515 98.126 35.3066 97.9018 36.0553Z" fill="#455A64"/>
<path d="M94.6399 40.2894L90.9134 41.3553L90.1055 35.8565C90.2916 35.4335 90.5285 35.167 90.9514 35.1458C90.9804 35.1373 91.0113 35.1373 91.0403 35.1458C91.0683 35.1417 91.0968 35.1417 91.1249 35.1458C91.166 35.1526 91.2059 35.1655 91.2433 35.1839C91.2433 35.1839 91.2433 35.1839 91.2645 35.1839C91.2856 35.1839 91.3829 35.2897 91.4379 35.3531C91.8586 35.8067 92.2366 36.298 92.5673 36.8209C92.9183 37.3496 93.2863 37.9418 93.6459 38.5509C93.8489 38.8935 94.0435 39.2361 94.2465 39.5788C94.365 39.8368 94.5172 40.061 94.6399 40.2894Z" fill="#AF6152"/>
<path d="M87.4533 36.3599C87.4392 36.5639 87.3654 36.7593 87.2413 36.9219C87.1171 37.0844 86.948 37.207 86.7549 37.2743C86.5617 37.3416 86.3531 37.3507 86.1548 37.3006C85.9565 37.2504 85.7773 37.1432 85.6394 36.9921C85.5015 36.841 85.4109 36.6528 85.379 36.4508C85.3471 36.2488 85.3752 36.0418 85.4598 35.8556C85.5444 35.6694 85.6818 35.5121 85.8549 35.4032C86.0281 35.2943 86.2294 35.2387 86.4339 35.2432C86.5745 35.2486 86.7126 35.2819 86.8402 35.3411C86.9678 35.4004 87.0823 35.4844 87.1772 35.5883C87.272 35.6922 87.3453 35.8139 87.3927 35.9464C87.4401 36.0788 87.4607 36.2194 87.4533 36.3599V36.3599Z" fill="#263238"/>
<path d="M87.1953 32.0496L84.7292 32.7222C84.6467 32.3865 84.697 32.0319 84.8696 31.7324C85.0422 31.4329 85.3238 31.2117 85.6556 31.1148C85.8181 31.0745 85.987 31.0666 86.1525 31.0919C86.318 31.1171 86.4769 31.1748 86.62 31.2617C86.7632 31.3486 86.8877 31.4629 86.9864 31.5982C87.0851 31.7334 87.1561 31.8868 87.1953 32.0496V32.0496Z" fill="#263238"/>
<path d="M96.6327 32.1428L94.0947 31.6648C94.1176 31.4988 94.174 31.3392 94.2605 31.1957C94.347 31.0521 94.4618 30.9277 94.5979 30.83C94.7341 30.7322 94.8886 30.6632 95.0523 30.6271C95.2159 30.591 95.3852 30.5886 95.5498 30.62C95.8914 30.686 96.1945 30.881 96.3961 31.1646C96.5978 31.4481 96.6825 31.7984 96.6327 32.1428Z" fill="#263238"/>
<path d="M95.5837 36.1568C95.5518 36.3588 95.4613 36.5471 95.3234 36.6982C95.1856 36.8493 95.0064 36.9566 94.8081 37.0068C94.6098 37.057 94.4011 37.0479 94.208 36.9807C94.0148 36.9134 93.8456 36.7909 93.7214 36.6283C93.5973 36.4658 93.5235 36.2704 93.5093 36.0663C93.4952 35.8623 93.5412 35.6585 93.6418 35.4804C93.7423 35.3023 93.893 35.1576 94.075 35.0643C94.257 34.971 94.4624 34.9331 94.6658 34.9555C94.8051 34.9737 94.9394 35.0193 95.0611 35.0896C95.1827 35.1599 95.2892 35.2536 95.3745 35.3652C95.4598 35.4769 95.5222 35.6043 95.5581 35.7401C95.594 35.876 95.6027 36.0176 95.5837 36.1568V36.1568Z" fill="#263238"/>
<path d="M84.7891 58.3141C79.5821 58.8936 75.0815 55.9749 74.5358 54.854C73.9901 53.7331 75.1914 51.6351 75.1745 50.696C75.1576 49.757 75.3945 48.9787 76.1559 49.2409L76.0966 50.4718C76.0966 50.4718 76.9426 52.2484 81.7562 52.9252C86.5699 53.602 88.1011 52.1638 88.1011 52.1638L88.2068 51.4659C88.6002 51.4659 89.0147 51.4659 89.4123 51.4659C89.3214 52.1422 89.3587 52.8295 89.5223 53.492C89.8311 54.541 90.0045 57.7346 84.7891 58.3141Z" fill="#EBEBEB"/>
<path d="M123.023 70.9367C123.023 70.9367 122.803 69.8285 124.136 68.5553C125.468 67.2821 127.279 66.1612 127.554 63.3779L129.732 64.2874L127.059 70.463L123.023 70.9367Z" fill="#7E57C2"/>
<path opacity="0.75" d="M123.023 70.9367C123.023 70.9367 122.803 69.8285 124.136 68.5553C125.468 67.2821 127.279 66.1612 127.554 63.3779L129.732 64.2874L127.059 70.463L123.023 70.9367Z" fill="white"/>
<path d="M123.023 70.9367C123.023 70.9367 120.667 70.0907 115.947 71.7361C111.226 73.3816 107.424 75.1708 98.084 76.1648L100.681 77.2477L124.694 72.7301L123.023 70.9367Z" fill="#7E57C2"/>
<path opacity="0.75" d="M123.023 70.9367C123.023 70.9367 120.667 70.0907 115.947 71.7361C111.226 73.3816 107.424 75.1708 98.084 76.1648L100.681 77.2477L124.694 72.7301L123.023 70.9367Z" fill="white"/>
<path d="M98.083 76.165L93.0156 105.119L95.6128 106.202L100.676 77.2479L98.083 76.165Z" fill="#7E57C2"/>
<path opacity="0.8" d="M98.083 76.165L93.0156 105.119L95.6128 106.202L100.676 77.2479L98.083 76.165Z" fill="white"/>
<path opacity="0.1" d="M98.083 76.165L93.0156 105.119L95.6128 106.202L100.676 77.2479L98.083 76.165Z" fill="black"/>
<g opacity="0.1">
<path d="M127.744 64.8721C127.592 65.4827 127.322 66.0576 126.948 66.564C126.572 67.0688 126.162 67.5478 125.722 67.998C125.276 68.4283 124.874 68.9016 124.52 69.4108C124.36 69.6658 124.232 69.94 124.14 70.2271C124.049 70.4995 124.026 70.7898 124.072 71.0731L123.78 71.1535C123.732 70.814 123.77 70.4678 123.89 70.1468C123.999 69.8456 124.148 69.561 124.334 69.3008C124.712 68.7973 125.137 68.3312 125.603 67.9091C126.055 67.4802 126.479 67.0224 126.872 66.5387C127.269 66.0453 127.565 65.4791 127.744 64.8721V64.8721Z" fill="black"/>
<path d="M127.557 66.4922C127.399 66.869 127.191 67.2232 126.94 67.5454C126.698 67.8711 126.449 68.1926 126.216 68.5225C125.981 68.8477 125.777 69.1947 125.607 69.5589C125.44 69.9085 125.356 70.2922 125.362 70.6798H125.062C125.078 70.2511 125.196 69.8324 125.404 69.4573C125.601 69.0939 125.832 68.7498 126.094 68.4295C126.352 68.1122 126.618 67.8077 126.876 67.4947C127.147 67.1928 127.377 66.8556 127.557 66.4922V66.4922Z" fill="black"/>
<path d="M107.423 75.1719C108.734 74.8806 110.027 74.5162 111.297 74.0806C112.566 73.6576 113.814 73.1627 115.075 72.6932C116.333 72.2097 117.641 71.865 118.975 71.6653C119.644 71.5594 120.319 71.5001 120.997 71.4877C121.339 71.4844 121.681 71.5042 122.02 71.5469C122.379 71.5888 122.724 71.7086 123.031 71.898L122.853 72.1391C122.586 71.9757 122.288 71.8691 121.978 71.826C121.653 71.7773 121.325 71.7518 120.997 71.7499C120.331 71.7499 119.667 71.7966 119.009 71.8895C117.683 72.0624 116.381 72.3801 115.125 72.837C113.857 73.2811 112.588 73.7464 111.319 74.1525C110.04 74.5645 108.739 74.9048 107.423 75.1719V75.1719Z" fill="black"/>
<path d="M113.806 74.2285C114.546 74.0297 115.265 73.7802 115.993 73.5433C116.72 73.3064 117.443 73.0695 118.184 72.875C118.924 72.6745 119.679 72.533 120.442 72.452C121.218 72.3484 122.005 72.3914 122.765 72.5789L122.68 72.8665C121.96 72.6652 121.208 72.6006 120.464 72.6762C119.708 72.7365 118.958 72.8581 118.222 73.0399C117.477 73.2134 116.745 73.4206 116.014 73.6321C115.282 73.8436 114.55 74.0551 113.806 74.2285Z" fill="black"/>
</g>
<path d="M129.558 62.8916L126.445 70.2093L121.01 101.253L122.308 101.794L125.219 92.945L130.853 63.433L129.558 62.8916Z" fill="#7E57C2"/>
<path opacity="0.2" d="M127.744 70.7508L130.853 63.4331L125.219 92.9451L122.309 101.794L127.744 70.7508Z" fill="black"/>
<path d="M122.765 73.0137L99.0985 77.6158L93.6631 108.659L94.9617 109.205L118.624 104.603L124.063 73.5593L122.765 73.0137Z" fill="#7E57C2"/>
<path opacity="0.2" d="M100.397 78.1575L94.9619 109.205L118.624 104.603L124.064 73.5596L100.397 78.1575Z" fill="black"/>
<path opacity="0.35" d="M99.0985 77.6157L100.397 78.1571L94.9617 109.205L93.6631 108.659L99.0985 77.6157Z" fill="black"/>
<path d="M124.064 73.5596L127.744 70.751L122.308 101.794C121.885 103.486 120.616 104.379 118.624 104.603L124.064 73.5596Z" fill="#7E57C2"/>
<path opacity="0.35" d="M124.064 73.5596L127.744 70.751L122.308 101.794C121.83 103.588 120.511 104.417 118.624 104.603L124.064 73.5596Z" fill="black"/>
<path d="M126.301 70.1459C125.506 69.8118 124.042 70.1459 123.023 70.9369C122.004 71.7279 121.83 72.6289 122.625 72.9503L124.064 73.5594L127.744 70.7508L126.445 70.2094L126.301 70.1459Z" fill="#455A64"/>
<path d="M126.445 70.2095C126.356 71.3812 124.985 72.2863 122.765 73.0139L124.063 73.5595C125.988 73.0816 127.185 72.1214 127.743 70.7509L126.445 70.2095Z" fill="#7E57C2"/>
<path d="M68.2923 57.7817C63.4067 60.6496 60.8307 62.4135 60.4627 69.1475C60.0397 76.7232 59.9171 82.6366 60.7165 95.0683C60.9026 98.0292 60.3443 101.684 67.0614 102.648C75.6481 103.883 88.0374 103.875 91.1337 103.854C93.1133 103.854 97.4785 103.854 98.9886 103.52C103.722 102.517 106.014 99.4377 107.381 97.8177C108.138 96.9209 108.857 95.8423 108.734 94.6749C108.652 94.3073 108.619 93.9303 108.637 93.554C108.75 93.198 108.9 92.8549 109.085 92.5303C109.245 92.1429 109.276 91.7143 109.174 91.3079C109.037 90.9586 108.932 90.5976 108.861 90.2293C108.81 89.4763 109.449 88.8715 109.707 88.1566C109.753 88.0515 109.767 87.9356 109.749 87.8224C109.699 87.5813 109.42 87.4544 109.174 87.4206C108.167 87.281 106.814 87.8436 106.002 88.44C103.142 90.555 101.62 93.0041 97.3855 93.5159C96.3745 93.6343 95.114 93.334 95.2705 92.3315L95.6174 90.3477C93.236 91.0583 92.1446 93.5666 90.182 94.1546C88.4435 94.6791 73.6431 91.1683 73.6431 91.1683L73.55 76.3044C73.55 76.3044 74.5314 61.927 68.2923 57.7817Z" fill="#C8856A"/>
<path d="M68.36 56.9062C64.477 58.9916 60.7885 61.06 60.2852 67.1807C59.7818 73.3013 59.7649 83.2077 60.1371 91.5745C60.5094 99.9412 60.6955 100.665 63.2376 101.95C67.789 104.251 81.5869 103.735 81.5869 103.735C81.5869 103.735 80.2122 102.293 80.6056 98.4311C80.999 94.5692 82.3821 93.0845 82.3821 93.0845L74.1169 91.0034C74.1169 91.0034 74.3073 77.1844 74.1592 72.9968C74.0112 68.8092 72.7676 60.2986 68.36 56.9062Z" fill="#E0E0E0"/>
<path d="M127.574 80.5979C127.379 81.6131 126.669 82.9582 126.271 83.8253C125.874 84.6925 126.043 85.568 126.593 85.7499L125.611 90.8935C125.611 90.8935 126.322 90.8935 127.629 89.0746C128.936 87.2558 129.651 83.9734 129.774 82.2307C129.896 80.4879 129.824 77.3917 128.302 76.791L127.574 80.5979Z" fill="#C8856A"/>
<path d="M125.485 32.3646C122.835 33.9708 119.671 34.5048 116.64 33.8578L115.291 33.4898C112.38 32.5208 109.94 30.491 108.457 27.8043C106.975 25.1177 106.559 21.9713 107.292 18.9917C108.024 16.012 109.853 13.4176 112.412 11.7249C114.971 10.0323 118.074 9.36549 121.103 9.85737L122.469 10.1577C124.763 10.8001 126.82 12.1 128.384 13.8969C129.949 15.6938 130.953 17.9093 131.274 20.2702C131.595 22.6311 131.217 25.0342 130.189 27.1833C129.16 29.3324 127.525 31.1336 125.485 32.3646V32.3646Z" fill="white"/>
<path d="M130.502 15.0474C128.784 12.1987 126.057 10.1003 122.863 9.16904C119.67 8.23776 116.243 8.54169 113.263 10.0205C110.283 11.4993 107.968 14.0447 106.778 17.1513C105.588 20.258 105.61 23.6985 106.84 26.7896L104.323 30.0466C104.227 30.1696 104.171 30.3188 104.162 30.4745C104.152 30.6302 104.191 30.785 104.271 30.9184C104.352 31.0519 104.471 31.1577 104.613 31.2218C104.756 31.2859 104.914 31.3053 105.067 31.2775L109.124 30.5627C111.292 33.0847 114.33 34.6991 117.633 35.0854C120.937 35.4718 124.265 34.6018 126.957 32.6482C129.648 30.6945 131.507 27.8002 132.164 24.5396C132.821 21.2791 132.227 17.8908 130.502 15.0474V15.0474ZM125.485 32.3646C122.835 33.9707 119.671 34.5048 116.64 33.8577L115.291 33.4897C112.38 32.5208 109.94 30.4909 108.458 27.8043C106.975 25.1176 106.559 21.9713 107.292 18.9916C108.025 16.012 109.853 13.4176 112.412 11.7249C114.971 10.0322 118.074 9.36544 121.103 9.85732L122.469 10.1576C124.764 10.8001 126.82 12.0999 128.384 13.8968C129.949 15.6937 130.953 17.9092 131.274 20.2701C131.595 22.6311 131.217 25.0342 130.189 27.1833C129.16 29.3324 127.525 31.1335 125.485 32.3646V32.3646Z" fill="#E0E0E0"/>
<path d="M119.153 29.0111C110.533 24.4089 109.847 19.4769 112.356 17.0701C114.602 14.9171 118.7 16.3425 119.162 19.4304C119.623 16.3468 123.734 14.9255 125.976 17.087C128.48 19.498 127.778 24.4385 119.153 29.0111Z" fill="#7E57C2"/>
<path d="M55.6842 175.43L37.1065 185.92L8.58008 169.551L27.1535 159.061L55.6842 175.43Z" fill="#7E57C2"/>
<path opacity="0.6" d="M55.6842 175.43L37.1065 185.92L8.58008 169.551L27.1535 159.061L55.6842 175.43Z" fill="black"/>
<path d="M36.9036 185.176L54.8553 174.978C54.4323 173.709 54.4323 173.328 54.9483 171.645L37.1066 181.737C37.1066 181.737 36.7809 181.695 36.9036 185.176Z" fill="#F5F5F5"/>
<path d="M37.9771 180.333C37.5003 180.641 37.1031 181.058 36.8179 181.549C36.5327 182.04 36.3675 182.591 36.3359 183.158V185.362C36.3359 186.403 37.0719 186.826 37.9771 186.305L55.6792 176.251V175.447L38.1971 185.316C37.6557 185.629 37.2158 185.375 37.2158 184.753V182.786C37.2345 182.447 37.3331 182.117 37.5036 181.823C37.6742 181.529 37.9118 181.279 38.1971 181.094L55.6792 171.217V170.291L37.9771 180.333Z" fill="#7E57C2"/>
<path opacity="0.5" d="M37.9771 180.333C37.5003 180.641 37.1031 181.058 36.8179 181.549C36.5327 182.04 36.3675 182.591 36.3359 183.158V185.362C36.3359 186.403 37.0719 186.826 37.9771 186.305L55.6792 176.251V175.447L38.1971 185.316C37.6557 185.629 37.2158 185.375 37.2158 184.753V182.786C37.2345 182.447 37.3331 182.117 37.5036 181.823C37.6742 181.529 37.9118 181.279 38.1971 181.094L55.6792 171.217V170.291L37.9771 180.333Z" fill="black"/>
<path d="M55.6797 170.278L27.1533 153.909L9.45123 163.963C8.97362 164.271 8.57559 164.688 8.28963 165.179C8.00366 165.67 7.83788 166.221 7.8058 166.789V168.997C7.78496 169.199 7.81868 169.404 7.90346 169.589C7.98825 169.774 8.12102 169.933 8.28801 170.05L36.8144 186.42C36.6468 186.304 36.5135 186.145 36.4286 185.959C36.3438 185.774 36.3105 185.569 36.3322 185.366V183.158C36.363 182.592 36.5274 182.04 36.8119 181.549C37.0963 181.058 37.4929 180.641 37.9692 180.333L55.6797 170.278Z" fill="#7E57C2"/>
<path opacity="0.35" d="M55.6797 170.278L27.1533 153.909L9.45123 163.963C8.97362 164.271 8.57559 164.688 8.28963 165.179C8.00366 165.67 7.83788 166.221 7.8058 166.789V168.997C7.78496 169.199 7.81868 169.404 7.90346 169.589C7.98825 169.774 8.12102 169.933 8.28801 170.05L36.8144 186.42C36.6468 186.304 36.5135 186.145 36.4286 185.959C36.3438 185.774 36.3105 185.569 36.3322 185.366V183.158C36.363 182.592 36.5274 182.04 36.8119 181.549C37.0963 181.058 37.4929 180.641 37.9692 180.333L55.6797 170.278Z" fill="black"/>
<path d="M36.8141 181.551C36.5201 182.037 36.3555 182.59 36.3362 183.158V185.366C36.3144 185.569 36.3477 185.774 36.4326 185.959C36.5174 186.144 36.6507 186.303 36.8184 186.419L8.29196 170.05C8.12419 169.934 7.99059 169.775 7.90504 169.589C7.8195 169.404 7.78513 169.2 7.80552 168.997V166.789C7.82446 166.22 7.99061 165.666 8.28773 165.181L36.8141 181.551Z" fill="#7E57C2"/>
<path opacity="0.25" d="M36.8141 181.551C36.5201 182.037 36.3555 182.59 36.3362 183.158V185.366C36.3144 185.569 36.3477 185.774 36.4326 185.959C36.5174 186.144 36.6507 186.303 36.8184 186.419L8.29196 170.05C8.12419 169.934 7.99059 169.775 7.90504 169.589C7.8195 169.404 7.78513 169.2 7.80552 168.997V166.789C7.82446 166.22 7.99061 165.666 8.28773 165.181L36.8141 181.551Z" fill="black"/>
<path d="M12.1456 167.368C11.6126 169.678 11.6211 170.579 12.1456 172.275L13.5076 173.057C12.9831 171.365 12.9746 170.464 13.5076 168.155L12.1456 167.368Z" fill="#7E57C2"/>
<path d="M30.8546 178.121C30.3216 180.43 30.3301 181.301 30.8546 182.998L32.2124 183.78C31.6879 182.088 31.6836 181.213 32.2124 178.907L30.8546 178.121Z" fill="#7E57C2"/>
<path d="M59.4306 170.002L40.8529 180.492L12.3223 164.122L30.9 153.632L59.4306 170.002Z" fill="#7E57C2"/>
<path opacity="0.4" d="M59.4306 170.002L40.8529 180.492L12.3223 164.122L30.9 153.632L59.4306 170.002Z" fill="black"/>
<path d="M40.6507 179.726L58.6023 169.524C58.154 168.255 58.1793 167.692 58.6954 166.009L40.8537 176.101C40.8537 176.101 40.528 176.262 40.6507 179.726Z" fill="#F5F5F5"/>
<path d="M41.7242 174.722C41.2469 175.03 40.8493 175.447 40.5641 175.938C40.2788 176.429 40.1139 176.981 40.083 177.548V179.934C40.083 180.974 40.8148 181.397 41.7242 180.877L59.4094 170.818V170.002L41.9272 179.87C41.3858 180.183 40.9459 179.929 40.9459 179.303V177.159C40.9667 176.819 41.0667 176.49 41.2379 176.196C41.409 175.902 41.6465 175.652 41.9315 175.467L59.4094 165.594V164.668L41.7242 174.722Z" fill="#7E57C2"/>
<path opacity="0.25" d="M41.7242 174.722C41.2469 175.03 40.8493 175.447 40.5641 175.938C40.2788 176.429 40.1139 176.981 40.083 177.548V179.934C40.083 180.974 40.8148 181.397 41.7242 180.877L59.4094 170.818V170.002L41.9272 179.87C41.3858 180.183 40.9459 179.929 40.9459 179.303V177.159C40.9667 176.819 41.0667 176.49 41.2379 176.196C41.409 175.902 41.6465 175.652 41.9315 175.467L59.4094 165.594V164.668L41.7242 174.722Z" fill="black"/>
<path d="M59.4098 164.668L30.9003 148.298L13.1982 158.353C12.7214 158.661 12.3242 159.078 12.039 159.569C11.7538 160.06 11.5886 160.611 11.557 161.178V163.564C11.5358 163.767 11.5689 163.972 11.6529 164.157C11.7369 164.343 11.8688 164.503 12.035 164.622L40.5656 180.991C40.3986 180.875 40.2659 180.715 40.1811 180.53C40.0963 180.345 40.0626 180.141 40.0834 179.938V177.561C40.1149 176.995 40.2795 176.444 40.564 175.954C40.8485 175.464 41.2447 175.048 41.7204 174.739L59.4098 164.668Z" fill="#7E57C2"/>
<path d="M40.5614 175.94C40.2673 176.425 40.1028 176.977 40.0834 177.544V179.938C40.0626 180.14 40.0963 180.345 40.1811 180.53C40.2659 180.715 40.3986 180.874 40.5656 180.991L12.035 164.621C11.8688 164.503 11.7369 164.343 11.6529 164.157C11.5689 163.971 11.5358 163.767 11.557 163.564V161.178C11.5764 160.61 11.7409 160.057 12.035 159.571L40.5614 175.94Z" fill="#7E57C2"/>
<path opacity="0.15" d="M40.5614 175.94C40.2673 176.425 40.1028 176.977 40.0834 177.544V179.938C40.0626 180.14 40.0963 180.345 40.1811 180.53C40.2659 180.715 40.3986 180.874 40.5656 180.991L12.035 164.621C11.8688 164.503 11.7369 164.343 11.6529 164.157C11.5689 163.971 11.5358 163.767 11.557 163.564V161.178C11.5764 160.61 11.7409 160.057 12.035 159.571L40.5614 175.94Z" fill="black"/>
<path d="M15.8885 161.758C15.3598 164.067 15.3682 165.142 15.8885 166.834L17.2463 167.616C16.726 165.924 16.7176 164.837 17.2463 162.54L15.8885 161.758Z" fill="#7E57C2"/>
<path d="M34.6016 172.523C34.0687 174.832 34.0771 175.877 34.6016 177.573L35.9594 178.356C35.4349 176.664 35.4265 175.611 35.9594 173.301L34.6016 172.523Z" fill="#7E57C2"/>
<g opacity="0.4">
<path d="M15.8885 161.758C15.3598 164.067 15.3682 165.142 15.8885 166.834L17.2463 167.616C16.726 165.924 16.7176 164.837 17.2463 162.54L15.8885 161.758Z" fill="white"/>
<path d="M34.6016 172.523C34.0687 174.832 34.0771 175.877 34.6016 177.573L35.9594 178.356C35.4349 176.664 35.4265 175.611 35.9594 173.301L34.6016 172.523Z" fill="white"/>
</g>
<path d="M57.1094 163.975L56.3311 163.552L57.0417 163.383C57.1097 163.464 57.1523 163.563 57.1643 163.669C57.1764 163.774 57.1573 163.88 57.1094 163.975V163.975Z" fill="#7E57C2"/>
<path opacity="0.5" d="M57.1094 163.975L56.3311 163.552L57.0417 163.383C57.1097 163.464 57.1523 163.563 57.1643 163.669C57.1764 163.774 57.1573 163.88 57.1094 163.975V163.975Z" fill="black"/>
<path d="M36.4592 174.376C36.7055 174.499 36.977 174.564 37.2523 174.564C37.5277 174.564 37.7992 174.499 38.0454 174.376L55.8406 164.098L29.1923 148.963L28.5663 148.604L10.7669 158.628C10.6698 158.66 10.5851 158.721 10.525 158.803C10.465 158.886 10.4326 158.985 10.4326 159.087C10.4326 159.189 10.465 159.289 10.525 159.371C10.5851 159.454 10.6698 159.515 10.7669 159.546L36.4592 174.376Z" fill="#7E57C2"/>
<path d="M43.1429 155.211L49.3482 158.785L53.3666 156.463L58.0195 159.166V162.283C58.0195 162.706 57.5626 163.273 57.3934 163.176C57.0861 163.251 56.7871 163.358 56.5009 163.493C56.0421 163.761 55.6162 164.082 55.232 164.449L40.9688 156.463L43.1429 155.211Z" fill="#7E57C2"/>
<path opacity="0.15" d="M43.1429 155.211L49.3482 158.785L53.3666 156.463L58.0195 159.166V162.283C58.0195 162.706 57.5626 163.273 57.3934 163.176C57.0861 163.251 56.7871 163.358 56.5009 163.493C56.0421 163.761 55.6162 164.082 55.232 164.449L40.9688 156.463L43.1429 155.211Z" fill="black"/>
<path d="M55.4766 159.538V162.922L55.5316 162.888C55.7601 162.747 56.0205 162.665 56.2887 162.651C56.4645 162.633 56.6414 162.673 56.7921 162.765V158.781L55.4766 159.538Z" fill="#37474F"/>
<path d="M54.6016 164.089C54.6171 163.878 54.6951 163.676 54.8257 163.51C54.8921 163.421 54.9656 163.337 55.0457 163.26L55.1218 163.188C55.1523 163.159 55.1848 163.132 55.2191 163.108L55.2995 163.044L55.4771 162.926V159.542L54.6058 160.045V164.076L54.6016 164.089Z" fill="#E0E0E0"/>
<path opacity="0.4" d="M58.0398 162.283C58.0398 162.706 57.583 163.273 57.4138 163.176L56.792 162.774V160.219L57.418 159.145L57.7564 159.022L58.0398 159.187V162.283Z" fill="black"/>
<path d="M37.25 170.062V173.924C37.4339 173.93 37.6161 173.887 37.7787 173.801L39.7329 172.676L54.6053 164.09V160.042L37.25 170.062Z" fill="#EBEBEB"/>
<path d="M11.2236 155.566V158.485C11.2373 158.663 11.2922 158.837 11.3839 158.991C11.4756 159.145 11.6017 159.276 11.7524 159.373L34.7715 172.667L36.7214 173.793C36.8843 173.878 37.0663 173.92 37.2502 173.915V170.489L11.2236 155.566Z" fill="#F5F5F5"/>
<path d="M29.2012 143.942L55.8495 159.326V159.686C55.8495 159.885 56.1287 159.957 56.4713 159.758C56.8139 159.559 57.0931 159.314 57.0931 158.971L57.1269 158.633L29.971 142.961L29.861 142.897C29.8335 142.948 29.8176 143.005 29.8145 143.062V143.227C29.8018 143.422 29.5396 143.722 29.2012 143.942Z" fill="#7E57C2"/>
<path opacity="0.1" d="M29.2012 143.942L55.8495 159.326V159.686C55.8495 159.885 56.1287 159.957 56.4713 159.758C56.8139 159.559 57.0931 159.314 57.0931 158.971L57.1269 158.633L29.971 142.961L29.861 142.897C29.8335 142.948 29.8176 143.005 29.8145 143.062V143.227C29.8018 143.422 29.5396 143.722 29.2012 143.942Z" fill="black"/>
<path d="M38.0454 169.605L55.4472 159.555C55.6672 159.441 55.8702 159.348 55.9548 159.39L55.8406 159.327L29.1923 143.942L28.8793 143.765C28.738 143.721 28.5888 143.709 28.4424 143.731C28.2961 143.752 28.1563 143.805 28.0333 143.887L10.7669 153.874C10.6698 153.906 10.5851 153.967 10.525 154.049C10.465 154.132 10.4326 154.231 10.4326 154.333C10.4326 154.435 10.465 154.535 10.525 154.617C10.5851 154.699 10.6698 154.761 10.7669 154.792L36.4465 169.622C36.6957 169.745 36.9703 169.807 37.248 169.804C37.5257 169.801 37.7989 169.733 38.0454 169.605V169.605Z" fill="#7E57C2"/>
<path d="M29.8604 142.898L29.9703 142.961L57.1178 158.633C57.1313 158.603 57.1516 158.577 57.177 158.557L57.2658 158.506L57.4646 158.392L57.7058 158.252C57.7521 158.221 57.8078 158.207 57.8633 158.212C57.9189 158.218 57.9708 158.242 58.0103 158.282C58.0235 158.287 58.0351 158.296 58.0441 158.307C58.0753 158.342 58.1022 158.38 58.1245 158.421C58.1535 158.47 58.1776 158.521 58.1964 158.574C58.2179 158.632 58.2362 158.691 58.2514 158.751L58.2895 158.959C58.2918 158.999 58.2918 159.04 58.2895 159.081C58.2874 159.115 58.2874 159.149 58.2895 159.183C58.2895 159.259 58.2895 159.339 58.2895 159.424V158.658C58.2611 158.407 58.1744 158.166 58.0363 157.955C57.8982 157.743 57.7126 157.567 57.4943 157.44L31.8484 142.61C31.6366 142.485 31.399 142.411 31.1539 142.394C30.9088 142.376 30.663 142.415 30.4356 142.508L30.1099 142.699C30.1099 142.699 30.0338 142.745 29.9746 142.779C29.9242 142.805 29.8839 142.846 29.8604 142.898V142.898Z" fill="#7E57C2"/>
<path d="M38.0452 174.372L39.1069 173.755L55.2186 164.449C55.2324 164.238 55.309 164.036 55.4385 163.869C55.6296 163.618 55.87 163.408 56.1449 163.252C56.3732 163.11 56.6337 163.028 56.9021 163.015C57.0837 163.011 57.2613 163.069 57.4054 163.18C57.6125 162.765 57.7143 162.306 57.7015 161.843H58.3106C58.3106 162.689 58.0315 163.535 57.6931 163.726L57.3843 163.907C57.2066 164.009 57.0713 164.013 57.0713 163.907V163.742C57.0713 163.561 56.7921 163.569 56.4495 163.768C56.1069 163.967 55.8277 164.271 55.8277 164.457V164.622C55.8277 164.715 55.5908 164.927 55.3032 165.096L39.7203 174.093L38.0283 175.066C37.7842 175.193 37.5123 175.257 37.2373 175.252V174.546C37.5172 174.56 37.796 174.501 38.0452 174.372V174.372Z" fill="#7E57C2"/>
<path opacity="0.3" d="M38.0452 174.372L39.1069 173.755L55.2186 164.449C55.2324 164.238 55.309 164.036 55.4385 163.869C55.6296 163.618 55.87 163.408 56.1449 163.252C56.3732 163.11 56.6337 163.028 56.9021 163.015C57.0837 163.011 57.2613 163.069 57.4054 163.18C57.6125 162.765 57.7143 162.306 57.7015 161.843H58.3106C58.3106 162.689 58.0315 163.535 57.6931 163.726L57.3843 163.907C57.2066 164.009 57.0713 164.013 57.0713 163.907V163.742C57.0713 163.561 56.7921 163.569 56.4495 163.768C56.1069 163.967 55.8277 164.271 55.8277 164.457V164.622C55.8277 164.715 55.5908 164.927 55.3032 165.096L39.7203 174.093L38.0283 175.066C37.7842 175.193 37.5123 175.257 37.2373 175.252V174.546C37.5172 174.56 37.796 174.501 38.0452 174.372V174.372Z" fill="black"/>
<path d="M10.4541 154.297V155.012C10.4615 155.109 10.4944 155.201 10.5494 155.281C10.6044 155.36 10.6795 155.424 10.7671 155.465V155.465L34.7591 169.318L36.451 170.295C36.6951 170.422 36.967 170.486 37.242 170.481V169.779C36.9664 169.784 36.694 169.719 36.451 169.588L35.3766 168.967L10.7671 154.775C10.6753 154.733 10.5972 154.666 10.5418 154.581C10.4864 154.497 10.456 154.398 10.4541 154.297V154.297Z" fill="#7E57C2"/>
<path opacity="0.2" d="M10.4541 154.297V155.012C10.4615 155.109 10.4944 155.201 10.5494 155.281C10.6044 155.36 10.6795 155.424 10.7671 155.465V155.465L34.7591 169.318L36.451 170.295C36.6951 170.422 36.967 170.486 37.242 170.481V169.779C36.9664 169.784 36.694 169.719 36.451 169.588L35.3766 168.967L10.7671 154.775C10.6753 154.733 10.5972 154.666 10.5418 154.581C10.4864 154.497 10.456 154.398 10.4541 154.297V154.297Z" fill="black"/>
<path d="M10.4541 159.077V159.796C10.4614 159.892 10.4942 159.984 10.5493 160.063C10.6043 160.142 10.6796 160.205 10.7671 160.245V160.245L34.7591 174.098L36.451 175.07C36.6951 175.197 36.967 175.261 37.242 175.256V174.55C36.9662 174.557 36.6933 174.492 36.451 174.36L35.3851 173.755L10.7671 159.542C10.6769 159.502 10.5998 159.436 10.5445 159.354C10.4892 159.272 10.4579 159.176 10.4541 159.077V159.077Z" fill="#7E57C2"/>
<path opacity="0.2" d="M10.4541 159.077V159.796C10.4614 159.892 10.4942 159.984 10.5493 160.063C10.6043 160.142 10.6796 160.205 10.7671 160.245V160.245L34.7591 174.098L36.451 175.07C36.6951 175.197 36.967 175.261 37.242 175.256V174.55C36.9662 174.557 36.6933 174.492 36.451 174.36L35.3851 173.755L10.7671 159.542C10.6769 159.502 10.5998 159.436 10.5445 159.354C10.4892 159.272 10.4579 159.176 10.4541 159.077V159.077Z" fill="black"/>
<path d="M57.2988 155.062L36.4877 166.914L8.81152 151.031L29.6226 139.175L57.2988 155.062Z" fill="#7E57C2"/>
<path opacity="0.2" d="M57.2988 155.062L36.4877 166.914L8.81152 151.031L29.6226 139.175L57.2988 155.062Z" fill="white"/>
<path d="M36.2976 166.187L56.5165 154.61C56.0935 153.411 56.1217 152.014 56.6011 150.418L36.4879 161.911C36.4879 161.911 36.1791 162.909 36.2976 166.187Z" fill="#F5F5F5"/>
<path d="M37.3131 160.591C36.8606 160.881 36.4838 161.275 36.2138 161.74C35.9439 162.205 35.7885 162.727 35.7607 163.264V166.386C35.7607 167.371 36.4544 167.769 37.3131 167.278L57.2951 155.832V155.062L37.5246 166.326C37.0086 166.618 36.594 166.381 36.594 165.789V162.896C36.6122 162.574 36.7064 162.261 36.8689 161.982C37.0314 161.703 37.2575 161.467 37.5288 161.293L57.2951 150.024V149.145L37.3131 160.591Z" fill="#7E57C2"/>
<path opacity="0.4" d="M37.3131 160.591C36.8606 160.881 36.4838 161.275 36.2138 161.74C35.9439 162.205 35.7885 162.727 35.7607 163.264V166.386C35.7607 167.371 36.4544 167.769 37.3131 167.278L57.2951 155.832V155.062L37.5246 166.326C37.0086 166.618 36.594 166.381 36.594 165.789V162.896C36.6122 162.574 36.7064 162.261 36.8689 161.982C37.0314 161.703 37.2575 161.467 37.5288 161.293L57.2951 150.024V149.145L37.3131 160.591Z" fill="white"/>
<path d="M57.2946 149.149L29.6184 133.266L9.63641 144.707C9.18533 144.999 8.80959 145.394 8.53981 145.858C8.27004 146.323 8.11387 146.844 8.08403 147.381V150.49C8.06385 150.682 8.09559 150.876 8.17595 151.051C8.2563 151.227 8.38233 151.378 8.54086 151.488L36.2171 167.371C36.0585 167.261 35.9325 167.11 35.8522 166.935C35.7718 166.759 35.74 166.565 35.7602 166.373V163.264C35.788 162.727 35.9434 162.205 36.2133 161.74C36.4833 161.275 36.8601 160.881 37.3126 160.591L57.2946 149.149Z" fill="#7E57C2"/>
<path opacity="0.85" d="M57.2946 149.149L29.6184 133.266L9.63641 144.707C9.18533 144.999 8.80959 145.394 8.53981 145.858C8.27004 146.323 8.11387 146.844 8.08403 147.381V150.49C8.06385 150.682 8.09559 150.876 8.17595 151.051C8.2563 151.227 8.38233 151.378 8.54086 151.488L36.2171 167.371C36.0585 167.261 35.9325 167.11 35.8522 166.935C35.7718 166.759 35.74 166.565 35.7602 166.373V163.264C35.788 162.727 35.9434 162.205 36.2133 161.74C36.4833 161.275 36.8601 160.881 37.3126 160.591L57.2946 149.149Z" fill="white"/>
<path d="M36.2132 161.741C35.9347 162.202 35.7789 162.726 35.7606 163.264V166.386C35.7404 166.578 35.7721 166.772 35.8525 166.947C35.9328 167.123 36.0589 167.274 36.2174 167.384L8.54119 151.501C8.38062 151.389 8.25331 151.236 8.17285 151.058C8.09239 150.88 8.0618 150.684 8.08436 150.49V147.368C8.10343 146.83 8.26075 146.305 8.54119 145.845L36.2132 161.741Z" fill="#7E57C2"/>
<path opacity="0.6" d="M36.2132 161.741C35.9347 162.202 35.7789 162.726 35.7606 163.264V166.386C35.7404 166.578 35.7721 166.772 35.8525 166.947C35.9328 167.123 36.0589 167.274 36.2174 167.384L8.54119 151.501C8.38062 151.389 8.25331 151.236 8.17285 151.058C8.09239 150.88 8.0618 150.684 8.08436 150.49V147.368C8.10343 146.83 8.26075 146.305 8.54119 145.845L36.2132 161.741Z" fill="white"/>
<path d="M12.1878 147.952C11.6845 150.139 11.6929 152.025 12.1878 153.628L13.4568 154.373C12.9619 152.77 12.9534 150.879 13.4568 148.696L12.1878 147.952Z" fill="white"/>
<path d="M30.5706 158.526C30.0673 160.713 30.0757 162.6 30.5706 164.203L31.8396 164.947C31.3447 163.344 31.3363 161.458 31.8396 159.271L30.5706 158.526Z" fill="white"/>
</svg>
